<svg width="698" height="172" viewBox="0 0 698 172" fill="none" xmlns="http://www.w3.org/2000/svg">
<line x1="50.5" y1="34.5142" x2="685.5" y2="34.5142" stroke="#F2EDEE" stroke-linecap="round"/>
<path d="M102.123 157.939V158.901H98.184V161.956H101.382V162.918H98.184V167H97.001V157.939H102.123ZM104.735 158.901V161.93H108.037V162.905H104.735V166.025H108.427V167H103.552V157.926H108.427V158.901H104.735ZM114.754 162.333C115.083 162.385 115.382 162.519 115.651 162.736C115.928 162.953 116.145 163.221 116.301 163.542C116.465 163.863 116.548 164.205 116.548 164.569C116.548 165.028 116.431 165.444 116.197 165.817C115.963 166.181 115.62 166.471 115.17 166.688C114.728 166.896 114.203 167 113.597 167H110.217V157.939H113.467C114.082 157.939 114.606 158.043 115.04 158.251C115.473 158.45 115.798 158.723 116.015 159.07C116.231 159.417 116.34 159.807 116.34 160.24C116.34 160.777 116.192 161.224 115.898 161.579C115.612 161.926 115.23 162.177 114.754 162.333ZM111.4 161.852H113.389C113.943 161.852 114.372 161.722 114.676 161.462C114.979 161.202 115.131 160.842 115.131 160.383C115.131 159.924 114.979 159.564 114.676 159.304C114.372 159.044 113.935 158.914 113.363 158.914H111.4V161.852ZM113.493 166.025C114.082 166.025 114.541 165.886 114.871 165.609C115.2 165.332 115.365 164.946 115.365 164.452C115.365 163.949 115.191 163.555 114.845 163.269C114.498 162.974 114.034 162.827 113.454 162.827H111.4V166.025H113.493Z" fill="#979699"/>
<path d="M209.192 158.004V167H208.009V160.292L205.019 167H204.187L201.184 160.279V167H200.001V158.004H201.275L204.603 165.44L207.931 158.004H209.192ZM216.554 164.985H212.602L211.874 167H210.626L213.902 157.991H215.267L218.53 167H217.282L216.554 164.985ZM216.216 164.023L214.578 159.447L212.94 164.023H216.216ZM224.729 167L222.571 163.295H221.141V167H219.958V157.939H222.883C223.568 157.939 224.144 158.056 224.612 158.29C225.089 158.524 225.444 158.84 225.678 159.239C225.912 159.638 226.029 160.093 226.029 160.604C226.029 161.228 225.847 161.778 225.483 162.255C225.128 162.732 224.59 163.048 223.871 163.204L226.146 167H224.729ZM221.141 162.346H222.883C223.524 162.346 224.005 162.19 224.326 161.878C224.647 161.557 224.807 161.133 224.807 160.604C224.807 160.067 224.647 159.651 224.326 159.356C224.014 159.061 223.533 158.914 222.883 158.914H221.141V162.346Z" fill="#979699"/>
<path d="M313.357 164.985H309.405L308.677 167H307.429L310.705 157.991H312.07L315.333 167H314.085L313.357 164.985ZM313.019 164.023L311.381 159.447L309.743 164.023H313.019ZM322.819 160.591C322.819 161.345 322.559 161.973 322.039 162.476C321.527 162.97 320.743 163.217 319.686 163.217H317.944V167H316.761V157.939H319.686C320.708 157.939 321.484 158.186 322.013 158.68C322.55 159.174 322.819 159.811 322.819 160.591ZM319.686 162.242C320.344 162.242 320.83 162.099 321.142 161.813C321.454 161.527 321.61 161.12 321.61 160.591C321.61 159.473 320.968 158.914 319.686 158.914H317.944V162.242H319.686ZM329.06 167L326.902 163.295H325.472V167H324.289V157.939H327.214C327.899 157.939 328.475 158.056 328.943 158.29C329.42 158.524 329.775 158.84 330.009 159.239C330.243 159.638 330.36 160.093 330.36 160.604C330.36 161.228 330.178 161.778 329.814 162.255C329.459 162.732 328.921 163.048 328.202 163.204L330.477 167H329.06ZM325.472 162.346H327.214C327.855 162.346 328.336 162.19 328.657 161.878C328.978 161.557 329.138 161.133 329.138 160.604C329.138 160.067 328.978 159.651 328.657 159.356C328.345 159.061 327.864 158.914 327.214 158.914H325.472V162.346Z" fill="#979699"/>
<path d="M422.192 158.004V167H421.009V160.292L418.019 167H417.187L414.184 160.279V167H413.001V158.004H414.275L417.603 165.44L420.931 158.004H422.192ZM429.554 164.985H425.602L424.874 167H423.626L426.902 157.991H428.267L431.53 167H430.282L429.554 164.985ZM429.216 164.023L427.578 159.447L425.94 164.023H429.216ZM439.302 157.939L436.351 163.581V167H435.168V163.581L432.204 157.939H433.517L435.753 162.528L437.989 157.939H439.302Z" fill="#979699"/>
<path d="M523.564 157.939V164.634C523.564 165.379 523.334 165.977 522.875 166.428C522.416 166.87 521.809 167.091 521.055 167.091C520.292 167.091 519.681 166.866 519.222 166.415C518.763 165.956 518.533 165.332 518.533 164.543H519.716C519.725 164.985 519.837 165.345 520.054 165.622C520.279 165.899 520.613 166.038 521.055 166.038C521.497 166.038 521.826 165.908 522.043 165.648C522.26 165.379 522.368 165.041 522.368 164.634V157.939H523.564ZM527.052 157.939V163.672C527.052 164.478 527.247 165.076 527.637 165.466C528.035 165.856 528.586 166.051 529.288 166.051C529.981 166.051 530.523 165.856 530.913 165.466C531.311 165.076 531.511 164.478 531.511 163.672V157.939H532.694V163.659C532.694 164.413 532.542 165.05 532.239 165.57C531.935 166.081 531.524 166.463 531.004 166.714C530.492 166.965 529.916 167.091 529.275 167.091C528.633 167.091 528.053 166.965 527.533 166.714C527.021 166.463 526.614 166.081 526.311 165.57C526.016 165.05 525.869 164.413 525.869 163.659V157.939H527.052ZM541.791 167H540.608L535.85 159.785V167H534.667V157.926H535.85L540.608 165.128V157.926H541.791V167Z" fill="#979699"/>
<path d="M625.564 157.939V164.634C625.564 165.379 625.334 165.977 624.875 166.428C624.416 166.87 623.809 167.091 623.055 167.091C622.292 167.091 621.681 166.866 621.222 166.415C620.763 165.956 620.533 165.332 620.533 164.543H621.716C621.725 164.985 621.837 165.345 622.054 165.622C622.279 165.899 622.613 166.038 623.055 166.038C623.497 166.038 623.826 165.908 624.043 165.648C624.26 165.379 624.368 165.041 624.368 164.634V157.939H625.564ZM629.052 157.939V163.672C629.052 164.478 629.247 165.076 629.637 165.466C630.035 165.856 630.586 166.051 631.288 166.051C631.981 166.051 632.523 165.856 632.913 165.466C633.311 165.076 633.511 164.478 633.511 163.672V157.939H634.694V163.659C634.694 164.413 634.542 165.05 634.239 165.57C633.935 166.081 633.524 166.463 633.004 166.714C632.492 166.965 631.916 167.091 631.275 167.091C630.633 167.091 630.053 166.965 629.533 166.714C629.021 166.463 628.614 166.081 628.311 165.57C628.016 165.05 627.869 164.413 627.869 163.659V157.939H629.052ZM637.85 166.038H641.022V167H636.667V157.939H637.85V166.038Z" fill="#979699"/>
<g filter="url(#filter0_d_79_80)">
<path d="M58.5 86.0142C74 104.514 96.4022 129.233 120.5 123.014C171.934 109.741 179.514 36.9751 221.5 69.5142C261.5 100.514 289.5 115.514 315 99.0142C353.131 74.3415 389.138 12.7849 433.5 22.5142C487.401 34.3354 496.418 116.837 551.5 113.514C603.183 110.397 638.03 42.5017 686 23.0142" stroke="#08D110" stroke-width="3" stroke-linecap="round"/>
</g>
<line x1="50.5" y1="134.514" x2="685.5" y2="134.514" stroke="#979699" stroke-opacity="0.11" stroke-linecap="round"/>
<line x1="50.5" y1="84.5142" x2="685.5" y2="84.5142" stroke="#979699" stroke-opacity="0.11" stroke-linecap="round"/>
<g filter="url(#filter1_d_79_80)">
<path d="M56.5 41.0141C56.5 41.0141 82.252 109.014 113.5 109.014C154.5 109.014 170.01 56.8117 190 32.0142C229.5 -16.9857 269 17.0138 312 41.0141C356.633 65.9257 379.95 96.5455 431.001 94.0139C479.21 91.6232 507.423 31.6526 555 23.5142C591.286 17.3071 661.783 56.2875 686 84.0142" stroke="#3E00C2" stroke-width="3" stroke-linecap="round"/>
</g>
<path d="M8.494 129.68V128.601H10.938V138H9.742V129.68H8.494ZM12.9701 133.203C12.9701 131.712 13.2127 130.551 13.6981 129.719C14.1834 128.878 15.0327 128.458 16.2461 128.458C17.4507 128.458 18.2957 128.878 18.7811 129.719C19.2664 130.551 19.5091 131.712 19.5091 133.203C19.5091 134.72 19.2664 135.898 18.7811 136.739C18.2957 137.58 17.4507 138 16.2461 138C15.0327 138 14.1834 137.58 13.6981 136.739C13.2127 135.898 12.9701 134.72 12.9701 133.203ZM18.3391 133.203C18.3391 132.449 18.2871 131.812 18.1831 131.292C18.0877 130.763 17.8841 130.339 17.5721 130.018C17.2687 129.697 16.8267 129.537 16.2461 129.537C15.6567 129.537 15.2061 129.697 14.8941 130.018C14.5907 130.339 14.3871 130.763 14.2831 131.292C14.1877 131.812 14.1401 132.449 14.1401 133.203C14.1401 133.983 14.1877 134.637 14.2831 135.166C14.3871 135.695 14.5907 136.119 14.8941 136.44C15.2061 136.761 15.6567 136.921 16.2461 136.921C16.8267 136.921 17.2687 136.761 17.5721 136.44C17.8841 136.119 18.0877 135.695 18.1831 135.166C18.2871 134.637 18.3391 133.983 18.3391 133.203ZM30.5191 129.004V138H29.3361V131.292L26.3461 138H25.5141L22.5111 131.279V138H21.3281V129.004H22.6021L25.9301 136.44L29.2581 129.004H30.5191Z" fill="#979699"/>
<path d="M12.799 79.628H8.236V82.592C8.43533 82.3147 8.73 82.0893 9.12 81.916C9.51 81.734 9.93033 81.643 10.381 81.643C11.1003 81.643 11.6853 81.7947 12.136 82.098C12.5867 82.3927 12.9073 82.7783 13.098 83.255C13.2973 83.723 13.397 84.2213 13.397 84.75C13.397 85.374 13.28 85.933 13.046 86.427C12.812 86.921 12.4523 87.311 11.967 87.597C11.4903 87.883 10.8967 88.026 10.186 88.026C9.276 88.026 8.53933 87.792 7.976 87.324C7.41267 86.856 7.07033 86.232 6.949 85.452H8.106C8.21867 85.946 8.457 86.3317 8.821 86.609C9.185 86.8863 9.64433 87.025 10.199 87.025C10.8837 87.025 11.3993 86.8213 11.746 86.414C12.0927 85.998 12.266 85.452 12.266 84.776C12.266 84.1 12.0927 83.58 11.746 83.216C11.3993 82.8433 10.888 82.657 10.212 82.657C9.75267 82.657 9.34967 82.7697 9.003 82.995C8.665 83.2117 8.418 83.5107 8.262 83.892H7.144V78.588H12.799V79.628ZM14.9691 83.203C14.9691 81.7123 15.2118 80.551 15.6971 79.719C16.1824 78.8783 17.0318 78.458 18.2451 78.458C19.4498 78.458 20.2948 78.8783 20.7801 79.719C21.2654 80.551 21.5081 81.7123 21.5081 83.203C21.5081 84.7197 21.2654 85.8983 20.7801 86.739C20.2948 87.5797 19.4498 88 18.2451 88C17.0318 88 16.1824 87.5797 15.6971 86.739C15.2118 85.8983 14.9691 84.7197 14.9691 83.203ZM20.3381 83.203C20.3381 82.449 20.2861 81.812 20.1821 81.292C20.0868 80.7633 19.8831 80.3387 19.5711 80.018C19.2678 79.6973 18.8258 79.537 18.2451 79.537C17.6558 79.537 17.2051 79.6973 16.8931 80.018C16.5898 80.3387 16.3861 80.7633 16.2821 81.292C16.1868 81.812 16.1391 82.449 16.1391 83.203C16.1391 83.983 16.1868 84.6373 16.2821 85.166C16.3861 85.6947 16.5898 86.1193 16.8931 86.44C17.2051 86.7607 17.6558 86.921 18.2451 86.921C18.8258 86.921 19.2678 86.7607 19.5711 86.44C19.8831 86.1193 20.0868 85.6947 20.1821 85.166C20.2861 84.6373 20.3381 83.983 20.3381 83.203ZM32.5182 79.004V88H31.3352V81.292L28.3452 88H27.5132L24.5102 81.279V88H23.3272V79.004H24.6012L27.9292 86.44L31.2572 79.004H32.5182Z" fill="#979699"/>
<path d="M0.494 29.6942V28.6152H2.938V38.0142H1.742V29.6942H0.494ZM4.97006 33.2172C4.97006 31.7265 5.21273 30.5652 5.69806 29.7332C6.1834 28.8925 7.03273 28.4722 8.24606 28.4722C9.45073 28.4722 10.2957 28.8925 10.7811 29.7332C11.2664 30.5652 11.5091 31.7265 11.5091 33.2172C11.5091 34.7338 11.2664 35.9125 10.7811 36.7532C10.2957 37.5938 9.45073 38.0142 8.24606 38.0142C7.03273 38.0142 6.1834 37.5938 5.69806 36.7532C5.21273 35.9125 4.97006 34.7338 4.97006 33.2172ZM10.3391 33.2172C10.3391 32.4632 10.2871 31.8262 10.1831 31.3062C10.0877 30.7775 9.88406 30.3528 9.57206 30.0322C9.26873 29.7115 8.82673 29.5512 8.24606 29.5512C7.65673 29.5512 7.20606 29.7115 6.89406 30.0322C6.59073 30.3528 6.38706 30.7775 6.28306 31.3062C6.18773 31.8262 6.14006 32.4632 6.14006 33.2172C6.14006 33.9972 6.18773 34.6515 6.28306 35.1802C6.38706 35.7088 6.59073 36.1335 6.89406 36.4542C7.20606 36.7748 7.65673 36.9352 8.24606 36.9352C8.82673 36.9352 9.26873 36.7748 9.57206 36.4542C9.88406 36.1335 10.0877 35.7088 10.1831 35.1802C10.2871 34.6515 10.3391 33.9972 10.3391 33.2172ZM13.1331 33.2172C13.1331 31.7265 13.3758 30.5652 13.8611 29.7332C14.3465 28.8925 15.1958 28.4722 16.4091 28.4722C17.6138 28.4722 18.4588 28.8925 18.9441 29.7332C19.4295 30.5652 19.6721 31.7265 19.6721 33.2172C19.6721 34.7338 19.4295 35.9125 18.9441 36.7532C18.4588 37.5938 17.6138 38.0142 16.4091 38.0142C15.1958 38.0142 14.3465 37.5938 13.8611 36.7532C13.3758 35.9125 13.1331 34.7338 13.1331 33.2172ZM18.5021 33.2172C18.5021 32.4632 18.4501 31.8262 18.3461 31.3062C18.2508 30.7775 18.0471 30.3528 17.7351 30.0322C17.4318 29.7115 16.9898 29.5512 16.4091 29.5512C15.8198 29.5512 15.3691 29.7115 15.0571 30.0322C14.7538 30.3528 14.5501 30.7775 14.4461 31.3062C14.3508 31.8262 14.3031 32.4632 14.3031 33.2172C14.3031 33.9972 14.3508 34.6515 14.4461 35.1802C14.5501 35.7088 14.7538 36.1335 15.0571 36.4542C15.3691 36.7748 15.8198 36.9352 16.4091 36.9352C16.9898 36.9352 17.4318 36.7748 17.7351 36.4542C18.0471 36.1335 18.2508 35.7088 18.3461 35.1802C18.4501 34.6515 18.5021 33.9972 18.5021 33.2172ZM30.6822 29.0182V38.0142H29.4992V31.3062L26.5092 38.0142H25.6772L22.6742 31.2932V38.0142H21.4912V29.0182H22.7652L26.0932 36.4542L29.4212 29.0182H30.6822Z" fill="#979699"/>
<defs>
<filter id="filter0_d_79_80" x="47" y="14.9799" width="650.5" height="125.515" filterUnits="userSpaceOnUse" color-interpolation-filters="sRGB">
<feFlood flood-opacity="0" result="BackgroundImageFix"/>
<feColorMatrix in="SourceAlpha" type="matrix" values="0 0 0 0 0 0 0 0 0 0 0 0 0 0 0 0 0 0 127 0" result="hardAlpha"/>
<feOffset dy="5"/>
<feGaussianBlur stdDeviation="5"/>
<feComposite in2="hardAlpha" operator="out"/>
<feColorMatrix type="matrix" values="0 0 0 0 0.0313726 0 0 0 0 0.819608 0 0 0 0 0.0627451 0 0 0 0.44 0"/>
<feBlend mode="normal" in2="BackgroundImageFix" result="effect1_dropShadow_79_80"/>
<feBlend mode="normal" in="SourceGraphic" in2="effect1_dropShadow_79_80" result="shape"/>
</filter>
<filter id="filter1_d_79_80" x="44.9995" y="0.499996" width="652.5" height="125.014" filterUnits="userSpaceOnUse" color-interpolation-filters="sRGB">
<feFlood flood-opacity="0" result="BackgroundImageFix"/>
<feColorMatrix in="SourceAlpha" type="matrix" values="0 0 0 0 0 0 0 0 0 0 0 0 0 0 0 0 0 0 127 0" result="hardAlpha"/>
<feOffset dy="5"/>
<feGaussianBlur stdDeviation="5"/>
<feComposite in2="hardAlpha" operator="out"/>
<feColorMatrix type="matrix" values="0 0 0 0 0.309804 0 0 0 0 0.235294 0 0 0 0 0.752941 0 0 0 0.44 0"/>
<feBlend mode="normal" in2="BackgroundImageFix" result="effect1_dropShadow_79_80"/>
<feBlend mode="normal" in="SourceGraphic" in2="effect1_dropShadow_79_80" result="shape"/>
</filter>
</defs>
</svg>
