<svg width="831" height="221" viewBox="0 0 831 221" fill="none" xmlns="http://www.w3.org/2000/svg">
<path d="M12.0182 78.3286H-13.7808C-14.8853 78.3286 -15.7808 79.224 -15.7808 80.3286V155.804C-15.7808 156.909 -14.8853 157.804 -13.7807 157.804H847.527C848.631 157.804 849.527 156.909 849.527 155.804V80.3286C849.527 79.224 848.631 78.3286 847.527 78.3286H711.601C711.116 78.3286 710.649 78.1528 710.284 77.8338L678.85 50.3341C678.128 49.7019 677.058 49.6724 676.301 50.264L653.169 68.3561C652.456 68.9142 651.456 68.923 650.733 68.3775L626.527 50.1221C625.834 49.5991 624.882 49.5835 624.172 50.0834L597.784 68.6577C597.215 69.0583 596.479 69.1343 595.84 68.8583L578.089 61.1911C576.972 60.7084 575.686 61.3276 575.366 62.5023L549.897 156.162C549.403 157.976 546.907 158.169 546.141 156.453L525.209 109.6C524.887 108.879 524.172 108.416 523.383 108.416H503.385C502.496 108.416 501.713 107.828 501.465 106.974L477.543 24.6511C477.052 22.9611 474.775 22.6835 473.892 24.2059L448.875 67.3498C448.273 68.3879 446.899 68.6659 445.941 67.9433L422.684 50.4032C421.826 49.7562 420.61 49.9028 419.93 50.7351L398.001 77.5935C397.621 78.0587 397.053 78.3286 396.452 78.3286H311.193C310.466 78.3286 309.797 77.9346 309.444 77.2994L293.999 49.4805C293.912 49.3239 293.805 49.1796 293.679 49.0516L267.229 22.0555C266.299 21.106 264.719 21.3114 264.062 22.467L254.263 39.7106C254.075 40.0422 253.795 40.313 253.458 40.4911L217.4 59.5271C216.571 59.9648 215.549 59.7677 214.942 59.0529L193.688 34.0223C192.657 32.8084 190.69 33.2274 190.244 34.7559L166.038 117.599C165.45 119.609 162.56 119.48 162.156 117.425L140.057 5.24556C139.702 3.44345 137.309 3.03276 136.373 4.61335L115.578 39.7454C115.394 40.055 115.131 40.3094 114.815 40.4819L87.9571 55.1499C87.8209 55.2243 87.6937 55.3143 87.5783 55.4182L63.2709 77.2811C62.5869 77.8963 61.5714 77.9655 60.8102 77.4489L36.7249 61.1006C36.0023 60.6101 35.0448 60.6453 34.3601 61.1875L13.2598 77.8965C12.9065 78.1763 12.4689 78.3286 12.0182 78.3286Z" fill="url(#paint0_linear_12_1324)"/>
<path d="M-15.7808 78.3286H12.0182C12.4689 78.3286 12.9065 78.1763 13.2598 77.8965L34.3601 61.1875C35.0448 60.6453 36.0022 60.6101 36.7249 61.1006L60.8102 77.4489C61.5714 77.9655 62.5869 77.8963 63.2709 77.2811L87.5783 55.4182C87.6937 55.3143 87.8209 55.2243 87.9571 55.1499L114.815 40.4819C115.131 40.3094 115.394 40.055 115.578 39.7454L136.373 4.61335C137.309 3.03276 139.702 3.44345 140.057 5.24556L162.156 117.425C162.56 119.48 165.45 119.609 166.038 117.599L190.244 34.7559C190.69 33.2274 192.657 32.8084 193.688 34.0223L214.942 59.0529C215.549 59.7677 216.571 59.9648 217.4 59.5271L253.458 40.4911C253.795 40.313 254.075 40.0422 254.263 39.7106L264.062 22.467C264.719 21.3114 266.299 21.106 267.229 22.0555L293.679 49.0516C293.805 49.1796 293.912 49.3239 293.999 49.4805L309.444 77.2994C309.797 77.9346 310.466 78.3286 311.193 78.3286H396.452C397.053 78.3286 397.621 78.0587 398.001 77.5935L419.93 50.7351C420.61 49.9028 421.826 49.7562 422.684 50.4032L445.941 67.9433C446.899 68.6659 448.273 68.3879 448.875 67.3498L473.892 24.2059C474.775 22.6835 477.052 22.9611 477.543 24.6511L501.465 106.974C501.713 107.828 502.496 108.416 503.385 108.416H523.383C524.172 108.416 524.887 108.879 525.209 109.6L546.141 156.453C546.907 158.169 549.403 157.976 549.897 156.162L575.366 62.5023C575.686 61.3276 576.972 60.7084 578.089 61.1911L595.84 68.8583C596.479 69.1343 597.215 69.0583 597.784 68.6577L624.172 50.0834C624.882 49.5835 625.834 49.5991 626.527 50.1221L650.733 68.3775C651.456 68.923 652.456 68.9142 653.169 68.3561L676.301 50.264C677.058 49.6724 678.128 49.7019 678.85 50.3341L710.284 77.8339C710.649 78.1528 711.116 78.3286 711.601 78.3286H849.527" stroke="#00DEA3" stroke-width="3"/>
<path d="M48.9884 112.843H-8.72363C-10.3805 112.843 -11.7236 114.186 -11.7236 115.843V234.94C-11.7236 236.596 -10.3805 237.94 -8.72364 237.94H834.94C836.597 237.94 837.94 236.596 837.94 234.94V115.843C837.94 114.186 836.597 112.843 834.94 112.843H815.708C815.485 112.843 815.263 112.818 815.045 112.769L768.308 102.194C768.09 102.145 767.868 102.12 767.646 102.12H711.006C710.628 102.12 710.253 102.192 709.902 102.331L683.885 112.632C683.534 112.771 683.159 112.843 682.781 112.843H647.882C647.462 112.843 647.047 112.931 646.663 113.101L626.127 122.231C625.914 122.326 625.712 122.445 625.527 122.587L605.831 137.606C605.608 137.776 605.411 137.976 605.243 138.201L593.682 153.736C593.294 154.259 592.745 154.641 592.12 154.824L573.389 160.318C572.983 160.437 572.606 160.641 572.284 160.916L551.145 178.985C549.972 179.988 548.228 179.936 547.116 178.866L498.3 131.905L473.936 113.196C473.632 112.963 473.286 112.79 472.917 112.686L435.111 102.12L418.1 95.3845C417.428 95.1183 416.682 95.1039 416 95.344L368.052 112.219C366.969 112.601 365.762 112.33 364.946 111.521L350.217 96.9415C349.096 95.8323 347.308 95.7798 346.125 96.8214L328.766 112.095C328.218 112.577 327.514 112.843 326.784 112.843H290.97C290.072 112.843 289.221 112.44 288.651 111.746L275.07 95.1996C274.945 95.048 274.806 94.909 274.655 94.7846L257.722 80.8793C256.159 79.5956 253.799 80.1952 253.039 82.0694L248.084 94.2762C247.899 94.7328 247.604 95.1368 247.225 95.4523L227.197 112.147C226.658 112.597 225.978 112.843 225.276 112.843H204.927C204.198 112.843 203.493 113.109 202.945 113.59L159.35 151.949C157.866 153.255 155.546 152.793 154.675 151.018L125.309 91.1421C124.47 89.4315 122.269 88.9261 120.768 90.0992L69.4822 130.171C68.2343 131.146 66.4434 130.983 65.3919 129.798L51.2317 113.851C50.6624 113.21 49.8459 112.843 48.9884 112.843Z" fill="url(#paint1_linear_12_1324)" stroke="#5A55D2" stroke-width="3" stroke-linejoin="round"/>
<defs>
<linearGradient id="paint0_linear_12_1324" x1="432.178" y1="-126.146" x2="432.178" y2="133.992" gradientUnits="userSpaceOnUse">
<stop offset="0.171875" stop-color="#18BFEF"/>
<stop offset="0.880208" stop-color="#D3FF76" stop-opacity="0"/>
</linearGradient>
<linearGradient id="paint1_linear_12_1324" x1="426.5" y1="29.8505" x2="428.043" y2="195.151" gradientUnits="userSpaceOnUse">
<stop offset="0.113029" stop-color="#5A55D2" stop-opacity="0.24"/>
<stop offset="1" stop-color="#5A55D2" stop-opacity="0"/>
</linearGradient>
</defs>
</svg>
