<svg width="121" height="53" viewBox="0 0 121 53" fill="none" xmlns="http://www.w3.org/2000/svg">
<path d="M116.531 46.4845H4.09773" stroke="#E4E4E4" stroke-opacity="0.4" stroke-width="0.429134" stroke-linecap="square"/>
<path d="M116.531 30.6064H4.09773" stroke="#E4E4E4" stroke-opacity="0.4" stroke-width="0.429134" stroke-linecap="square"/>
<path d="M116.53 14.7286H4.09715" stroke="#E4E4E4" stroke-opacity="0.4" stroke-width="0.429134" stroke-linecap="square"/>
<path d="M9.67635 4.28993L19.9345 12.1147C21.5083 13.3151 23.6989 13.2834 25.2373 12.038L30.0622 8.13215C32.3725 6.26193 35.8384 7.24998 36.8153 10.0573L46.8239 38.8203C48.1358 42.5907 53.4344 42.6837 54.8778 38.9616L60.7689 23.7711C62.0372 20.5007 66.4804 20.0508 68.3786 23.0005L69.9686 25.4713C71.7381 28.221 75.8096 28.0607 77.3574 25.1804L80.1133 20.0521C80.692 18.9753 81.7024 18.1964 82.891 17.9109L90.0729 16.1854C90.8186 16.0063 91.5026 15.6306 92.0539 15.0974L102.033 5.44555C102.802 4.70205 103.82 4.27236 104.889 4.24067L116.531 3.89552" stroke="#6FCF97" stroke-width="1.49644" stroke-linejoin="round"/>
</svg>
