<svg width="121" height="53" viewBox="0 0 121 53" fill="none" xmlns="http://www.w3.org/2000/svg">
<path d="M4.30505 46.4845H116.738" stroke="#E4E4E4" stroke-opacity="0.4" stroke-width="0.429134" stroke-linecap="square"/>
<path d="M4.30505 30.6064H116.738" stroke="#E4E4E4" stroke-opacity="0.4" stroke-width="0.429134" stroke-linecap="square"/>
<path d="M4.30563 14.7286H116.739" stroke="#E4E4E4" stroke-opacity="0.4" stroke-width="0.429134" stroke-linecap="square"/>
<path d="M111.16 4.28993L100.901 12.1147C99.3277 13.3151 97.1371 13.2834 95.5987 12.038L90.7738 8.13215C88.4635 6.26193 84.9976 7.24998 84.0207 10.0573L74.0121 38.8203C72.7001 42.5907 67.4016 42.6837 65.9582 38.9616L60.0671 23.7711C58.7988 20.5007 54.3556 20.0508 52.4574 23.0005L50.8674 25.4713C49.0979 28.221 45.0264 28.0607 43.4786 25.1804L40.7227 20.0521C40.144 18.9753 39.1336 18.1964 37.945 17.9109L30.7631 16.1854C30.0174 16.0063 29.3334 15.6306 28.7821 15.0974L18.8031 5.44555C18.0344 4.70205 17.0158 4.27236 15.9468 4.24067L4.30517 3.89552" stroke="#6FCF97" stroke-width="1.49644" stroke-linejoin="round"/>
</svg>
