<svg width="765" height="267" viewBox="0 0 765 267" fill="none" xmlns="http://www.w3.org/2000/svg">
<g clip-path="url(#clip0_1_400)">
<rect x="0.737305" y="1.263" width="763.098" height="265.079" rx="12.5152" fill="white" stroke="#E0E0E0"/>
<path d="M85.2315 230.335V221.935H85.9635L89.8035 228.487H89.4195L93.2235 221.935H93.9555V230.335H93.1035V223.267H93.3075L89.8035 229.267H89.3835L85.8555 223.267H86.0835V230.335H85.2315ZM99.0805 230.395C98.4725 230.395 97.9245 230.259 97.4365 229.987C96.9565 229.707 96.5765 229.327 96.2965 228.847C96.0165 228.359 95.8765 227.803 95.8765 227.179C95.8765 226.547 96.0165 225.991 96.2965 225.511C96.5765 225.031 96.9565 224.655 97.4365 224.383C97.9165 224.111 98.4645 223.975 99.0805 223.975C99.7045 223.975 100.256 224.111 100.736 224.383C101.224 224.655 101.604 225.031 101.876 225.511C102.156 225.991 102.296 226.547 102.296 227.179C102.296 227.803 102.156 228.359 101.876 228.847C101.604 229.327 101.224 229.707 100.736 229.987C100.248 230.259 99.6965 230.395 99.0805 230.395ZM99.0805 229.639C99.5365 229.639 99.9405 229.539 100.292 229.339C100.644 229.131 100.92 228.843 101.12 228.475C101.328 228.099 101.432 227.667 101.432 227.179C101.432 226.683 101.328 226.251 101.12 225.883C100.92 225.515 100.644 225.231 100.292 225.031C99.9405 224.823 99.5405 224.719 99.0925 224.719C98.6445 224.719 98.2445 224.823 97.8925 225.031C97.5405 225.231 97.2605 225.515 97.0525 225.883C96.8445 226.251 96.7405 226.683 96.7405 227.179C96.7405 227.667 96.8445 228.099 97.0525 228.475C97.2605 228.843 97.5405 229.131 97.8925 229.339C98.2445 229.539 98.6405 229.639 99.0805 229.639ZM107.252 223.975C107.764 223.975 108.212 224.075 108.596 224.275C108.988 224.467 109.292 224.763 109.508 225.163C109.732 225.563 109.844 226.067 109.844 226.675V230.335H108.992V226.759C108.992 226.095 108.824 225.595 108.488 225.259C108.16 224.915 107.696 224.743 107.096 224.743C106.648 224.743 106.256 224.835 105.92 225.019C105.592 225.195 105.336 225.455 105.152 225.799C104.976 226.135 104.888 226.543 104.888 227.023V230.335H104.036V224.035H104.852V225.763L104.72 225.439C104.92 224.983 105.24 224.627 105.68 224.371C106.12 224.107 106.644 223.975 107.252 223.975Z" fill="#333333"/>
<path d="M177.632 230.335V222.703H174.68V221.935H181.472V222.703H178.52V230.335H177.632ZM185.15 230.395C184.614 230.395 184.146 230.295 183.746 230.095C183.346 229.895 183.034 229.595 182.81 229.195C182.594 228.795 182.486 228.295 182.486 227.695V224.035H183.338V227.599C183.338 228.271 183.502 228.779 183.83 229.123C184.166 229.459 184.634 229.627 185.234 229.627C185.674 229.627 186.054 229.539 186.374 229.363C186.702 229.179 186.95 228.915 187.118 228.571C187.294 228.227 187.382 227.815 187.382 227.335V224.035H188.234V230.335H187.418V228.607L187.55 228.919C187.35 229.383 187.038 229.747 186.614 230.011C186.198 230.267 185.71 230.395 185.15 230.395ZM193.285 230.395C192.629 230.395 192.053 230.259 191.557 229.987C191.061 229.707 190.673 229.327 190.393 228.847C190.113 228.359 189.973 227.803 189.973 227.179C189.973 226.555 190.105 226.003 190.369 225.523C190.641 225.043 191.009 224.667 191.473 224.395C191.945 224.115 192.473 223.975 193.057 223.975C193.649 223.975 194.173 224.111 194.629 224.383C195.093 224.647 195.457 225.023 195.721 225.511C195.985 225.991 196.117 226.547 196.117 227.179C196.117 227.219 196.113 227.263 196.105 227.311C196.105 227.351 196.105 227.395 196.105 227.443H190.621V226.807H195.649L195.313 227.059C195.313 226.603 195.213 226.199 195.013 225.847C194.821 225.487 194.557 225.207 194.221 225.007C193.885 224.807 193.497 224.707 193.057 224.707C192.625 224.707 192.237 224.807 191.893 225.007C191.549 225.207 191.281 225.487 191.089 225.847C190.897 226.207 190.801 226.619 190.801 227.083V227.215C190.801 227.695 190.905 228.119 191.113 228.487C191.329 228.847 191.625 229.131 192.001 229.339C192.385 229.539 192.821 229.639 193.309 229.639C193.693 229.639 194.049 229.571 194.377 229.435C194.713 229.299 195.001 229.091 195.241 228.811L195.721 229.363C195.441 229.699 195.089 229.955 194.665 230.131C194.249 230.307 193.789 230.395 193.285 230.395Z" fill="#333333"/>
<path d="M279.008 230.335L276.176 221.935H277.088L279.74 229.843H279.284L282.02 221.935H282.836L285.536 229.843H285.104L287.78 221.935H288.632L285.8 230.335H284.864L282.284 222.835H282.524L279.932 230.335H279.008ZM292.276 230.395C291.62 230.395 291.044 230.259 290.548 229.987C290.052 229.707 289.664 229.327 289.384 228.847C289.104 228.359 288.964 227.803 288.964 227.179C288.964 226.555 289.096 226.003 289.36 225.523C289.632 225.043 290 224.667 290.464 224.395C290.936 224.115 291.464 223.975 292.048 223.975C292.64 223.975 293.164 224.111 293.62 224.383C294.084 224.647 294.448 225.023 294.712 225.511C294.976 225.991 295.108 226.547 295.108 227.179C295.108 227.219 295.104 227.263 295.096 227.311C295.096 227.351 295.096 227.395 295.096 227.443H289.612V226.807H294.64L294.304 227.059C294.304 226.603 294.204 226.199 294.004 225.847C293.812 225.487 293.548 225.207 293.212 225.007C292.876 224.807 292.488 224.707 292.048 224.707C291.616 224.707 291.228 224.807 290.884 225.007C290.54 225.207 290.272 225.487 290.08 225.847C289.888 226.207 289.792 226.619 289.792 227.083V227.215C289.792 227.695 289.896 228.119 290.104 228.487C290.32 228.847 290.616 229.131 290.992 229.339C291.376 229.539 291.812 229.639 292.3 229.639C292.684 229.639 293.04 229.571 293.368 229.435C293.704 229.299 293.992 229.091 294.232 228.811L294.712 229.363C294.432 229.699 294.08 229.955 293.656 230.131C293.24 230.307 292.78 230.395 292.276 230.395ZM299.35 230.395C298.75 230.395 298.21 230.259 297.73 229.987C297.258 229.715 296.886 229.339 296.614 228.859C296.342 228.371 296.206 227.811 296.206 227.179C296.206 226.539 296.342 225.979 296.614 225.499C296.886 225.019 297.258 224.647 297.73 224.383C298.21 224.111 298.75 223.975 299.35 223.975C299.902 223.975 300.394 224.099 300.826 224.347C301.266 224.595 301.614 224.959 301.87 225.439C302.134 225.911 302.266 226.491 302.266 227.179C302.266 227.859 302.138 228.439 301.882 228.919C301.626 229.399 301.278 229.767 300.838 230.023C300.406 230.271 299.91 230.395 299.35 230.395ZM299.41 229.639C299.858 229.639 300.258 229.539 300.61 229.339C300.97 229.131 301.25 228.843 301.45 228.475C301.658 228.099 301.762 227.667 301.762 227.179C301.762 226.683 301.658 226.251 301.45 225.883C301.25 225.515 300.97 225.231 300.61 225.031C300.258 224.823 299.858 224.719 299.41 224.719C298.97 224.719 298.574 224.823 298.222 225.031C297.87 225.231 297.59 225.515 297.382 225.883C297.174 226.251 297.07 226.683 297.07 227.179C297.07 227.667 297.174 228.099 297.382 228.475C297.59 228.843 297.87 229.131 298.222 229.339C298.574 229.539 298.97 229.639 299.41 229.639ZM301.786 230.335V228.439L301.87 227.167L301.75 225.895V221.431H302.602V230.335H301.786Z" fill="#333333"/>
<path d="M385.049 230.335V222.703H382.097V221.935H388.89V222.703H385.937V230.335H385.049ZM393.344 223.975C393.856 223.975 394.304 224.075 394.688 224.275C395.08 224.467 395.384 224.763 395.6 225.163C395.824 225.563 395.936 226.067 395.936 226.675V230.335H395.084V226.759C395.084 226.095 394.916 225.595 394.58 225.259C394.252 224.915 393.788 224.743 393.188 224.743C392.74 224.743 392.348 224.835 392.012 225.019C391.684 225.195 391.428 225.455 391.244 225.799C391.068 226.135 390.98 226.543 390.98 227.023V230.335H390.128V221.431H390.98V225.763L390.812 225.439C391.012 224.983 391.332 224.627 391.772 224.371C392.212 224.107 392.736 223.975 393.344 223.975ZM400.841 230.395C400.305 230.395 399.837 230.295 399.437 230.095C399.037 229.895 398.725 229.595 398.501 229.195C398.285 228.795 398.177 228.295 398.177 227.695V224.035H399.029V227.599C399.029 228.271 399.193 228.779 399.521 229.123C399.857 229.459 400.325 229.627 400.925 229.627C401.365 229.627 401.745 229.539 402.065 229.363C402.393 229.179 402.641 228.915 402.809 228.571C402.985 228.227 403.073 227.815 403.073 227.335V224.035H403.925V230.335H403.109V228.607L403.241 228.919C403.041 229.383 402.729 229.747 402.305 230.011C401.889 230.267 401.401 230.395 400.841 230.395Z" fill="#333333"/>
<path d="M492.084 226.003H496.524V226.771H492.084V226.003ZM492.18 230.335H491.292V221.935H497.052V222.703H492.18V230.335ZM498.589 230.335V224.035H499.405V225.751L499.321 225.451C499.497 224.971 499.793 224.607 500.209 224.359C500.625 224.103 501.141 223.975 501.757 223.975V224.803C501.725 224.803 501.693 224.803 501.661 224.803C501.629 224.795 501.597 224.791 501.565 224.791C500.901 224.791 500.381 224.995 500.005 225.403C499.629 225.803 499.441 226.375 499.441 227.119V230.335H498.589ZM503.312 230.335V224.035H504.164V230.335H503.312ZM503.744 222.643C503.568 222.643 503.42 222.583 503.3 222.463C503.18 222.343 503.12 222.199 503.12 222.031C503.12 221.863 503.18 221.723 503.3 221.611C503.42 221.491 503.568 221.431 503.744 221.431C503.92 221.431 504.068 221.487 504.188 221.599C504.308 221.711 504.368 221.851 504.368 222.019C504.368 222.195 504.308 222.343 504.188 222.463C504.076 222.583 503.928 222.643 503.744 222.643Z" fill="#333333"/>
<path d="M594.734 230.407C594.11 230.407 593.51 230.307 592.934 230.107C592.366 229.899 591.926 229.635 591.614 229.315L591.962 228.631C592.258 228.919 592.654 229.163 593.15 229.363C593.654 229.555 594.182 229.651 594.734 229.651C595.262 229.651 595.69 229.587 596.018 229.459C596.354 229.323 596.598 229.143 596.75 228.919C596.91 228.695 596.99 228.447 596.99 228.175C596.99 227.847 596.894 227.583 596.702 227.383C596.518 227.183 596.274 227.027 595.97 226.915C595.666 226.795 595.33 226.691 594.962 226.603C594.594 226.515 594.226 226.423 593.858 226.327C593.49 226.223 593.15 226.087 592.838 225.919C592.534 225.751 592.286 225.531 592.094 225.259C591.91 224.979 591.818 224.615 591.818 224.167C591.818 223.751 591.926 223.371 592.142 223.027C592.366 222.675 592.706 222.395 593.162 222.187C593.618 221.971 594.202 221.863 594.914 221.863C595.386 221.863 595.854 221.931 596.318 222.067C596.782 222.195 597.182 222.375 597.518 222.607L597.218 223.315C596.858 223.075 596.474 222.899 596.066 222.787C595.666 222.675 595.278 222.619 594.902 222.619C594.398 222.619 593.982 222.687 593.654 222.823C593.326 222.959 593.082 223.143 592.922 223.375C592.77 223.599 592.694 223.855 592.694 224.143C592.694 224.471 592.786 224.735 592.97 224.935C593.162 225.135 593.41 225.291 593.714 225.403C594.026 225.515 594.366 225.615 594.734 225.703C595.102 225.791 595.466 225.887 595.826 225.991C596.194 226.095 596.53 226.231 596.834 226.399C597.146 226.559 597.394 226.775 597.578 227.047C597.77 227.319 597.866 227.675 597.866 228.115C597.866 228.523 597.754 228.903 597.53 229.255C597.306 229.599 596.962 229.879 596.498 230.095C596.042 230.303 595.454 230.407 594.734 230.407ZM603.569 230.335V228.943L603.533 228.715V226.387C603.533 225.851 603.381 225.439 603.077 225.151C602.781 224.863 602.337 224.719 601.745 224.719C601.337 224.719 600.949 224.787 600.581 224.923C600.213 225.059 599.901 225.239 599.645 225.463L599.261 224.827C599.581 224.555 599.965 224.347 600.413 224.203C600.861 224.051 601.333 223.975 601.829 223.975C602.645 223.975 603.273 224.179 603.713 224.587C604.161 224.987 604.385 225.599 604.385 226.423V230.335H603.569ZM601.397 230.395C600.925 230.395 600.513 230.319 600.161 230.167C599.817 230.007 599.553 229.791 599.369 229.519C599.185 229.239 599.093 228.919 599.093 228.559C599.093 228.231 599.169 227.935 599.321 227.671C599.481 227.399 599.737 227.183 600.089 227.023C600.449 226.855 600.929 226.771 601.529 226.771H603.701V227.407H601.553C600.945 227.407 600.521 227.515 600.281 227.731C600.049 227.947 599.933 228.215 599.933 228.535C599.933 228.895 600.073 229.183 600.353 229.399C600.633 229.615 601.025 229.723 601.529 229.723C602.009 229.723 602.421 229.615 602.765 229.399C603.117 229.175 603.373 228.855 603.533 228.439L603.725 229.027C603.565 229.443 603.285 229.775 602.885 230.023C602.493 230.271 601.997 230.395 601.397 230.395ZM608.691 230.395C608.099 230.395 607.643 230.235 607.323 229.915C607.003 229.595 606.843 229.143 606.843 228.559V222.643H607.695V228.511C607.695 228.879 607.787 229.163 607.971 229.363C608.163 229.563 608.435 229.663 608.787 229.663C609.163 229.663 609.475 229.555 609.723 229.339L610.023 229.951C609.855 230.103 609.651 230.215 609.411 230.287C609.179 230.359 608.939 230.395 608.691 230.395ZM605.715 224.743V224.035H609.615V224.743H605.715Z" fill="#333333"/>
<path d="M683.321 230.407C682.697 230.407 682.097 230.307 681.521 230.107C680.953 229.899 680.513 229.635 680.201 229.315L680.549 228.631C680.845 228.919 681.241 229.163 681.737 229.363C682.241 229.555 682.769 229.651 683.321 229.651C683.849 229.651 684.277 229.587 684.605 229.459C684.941 229.323 685.185 229.143 685.337 228.919C685.497 228.695 685.577 228.447 685.577 228.175C685.577 227.847 685.481 227.583 685.289 227.383C685.105 227.183 684.861 227.027 684.557 226.915C684.253 226.795 683.917 226.691 683.549 226.603C683.181 226.515 682.813 226.423 682.445 226.327C682.077 226.223 681.737 226.087 681.425 225.919C681.121 225.751 680.873 225.531 680.681 225.259C680.497 224.979 680.405 224.615 680.405 224.167C680.405 223.751 680.513 223.371 680.729 223.027C680.953 222.675 681.293 222.395 681.749 222.187C682.205 221.971 682.789 221.863 683.501 221.863C683.973 221.863 684.441 221.931 684.905 222.067C685.369 222.195 685.769 222.375 686.105 222.607L685.805 223.315C685.445 223.075 685.061 222.899 684.653 222.787C684.253 222.675 683.865 222.619 683.489 222.619C682.985 222.619 682.569 222.687 682.241 222.823C681.913 222.959 681.669 223.143 681.509 223.375C681.357 223.599 681.281 223.855 681.281 224.143C681.281 224.471 681.373 224.735 681.557 224.935C681.749 225.135 681.997 225.291 682.301 225.403C682.613 225.515 682.953 225.615 683.321 225.703C683.689 225.791 684.053 225.887 684.413 225.991C684.781 226.095 685.117 226.231 685.421 226.399C685.733 226.559 685.981 226.775 686.165 227.047C686.357 227.319 686.453 227.675 686.453 228.115C686.453 228.523 686.341 228.903 686.117 229.255C685.893 229.599 685.549 229.879 685.085 230.095C684.629 230.303 684.041 230.407 683.321 230.407ZM690.812 230.395C690.276 230.395 689.808 230.295 689.408 230.095C689.008 229.895 688.696 229.595 688.472 229.195C688.256 228.795 688.148 228.295 688.148 227.695V224.035H689V227.599C689 228.271 689.164 228.779 689.492 229.123C689.828 229.459 690.296 229.627 690.896 229.627C691.336 229.627 691.716 229.539 692.036 229.363C692.364 229.179 692.612 228.915 692.78 228.571C692.956 228.227 693.044 227.815 693.044 227.335V224.035H693.896V230.335H693.08V228.607L693.212 228.919C693.012 229.383 692.7 229.747 692.276 230.011C691.86 230.267 691.372 230.395 690.812 230.395ZM699.487 223.975C699.999 223.975 700.447 224.075 700.831 224.275C701.223 224.467 701.527 224.763 701.743 225.163C701.967 225.563 702.079 226.067 702.079 226.675V230.335H701.227V226.759C701.227 226.095 701.059 225.595 700.723 225.259C700.395 224.915 699.931 224.743 699.331 224.743C698.883 224.743 698.491 224.835 698.155 225.019C697.827 225.195 697.571 225.455 697.387 225.799C697.211 226.135 697.123 226.543 697.123 227.023V230.335H696.271V224.035H697.087V225.763L696.955 225.439C697.155 224.983 697.475 224.627 697.915 224.371C698.355 224.107 698.879 223.975 699.487 223.975Z" fill="#333333"/>
<mask id="path-9-inside-1_1_400" fill="white">
<path d="M59.3599 220.903C58.7119 220.903 58.1359 220.735 57.6319 220.399C57.1279 220.055 56.7319 219.567 56.4439 218.935C56.1559 218.295 56.0119 217.527 56.0119 216.631C56.0119 215.735 56.1559 214.971 56.4439 214.339C56.7319 213.699 57.1279 213.211 57.6319 212.875C58.1359 212.531 58.7119 212.359 59.3599 212.359C60.0079 212.359 60.5839 212.531 61.0879 212.875C61.5919 213.211 61.9879 213.699 62.2759 214.339C62.5719 214.971 62.7199 215.735 62.7199 216.631C62.7199 217.527 62.5719 218.295 62.2759 218.935C61.9879 219.567 61.5919 220.055 61.0879 220.399C60.5839 220.735 60.0079 220.903 59.3599 220.903ZM59.3599 220.111C59.8559 220.111 60.2879 219.979 60.6559 219.715C61.0239 219.443 61.3119 219.051 61.5199 218.539C61.7279 218.019 61.8319 217.383 61.8319 216.631C61.8319 215.879 61.7279 215.247 61.5199 214.735C61.3119 214.215 61.0239 213.823 60.6559 213.559C60.2879 213.287 59.8559 213.151 59.3599 213.151C58.8799 213.151 58.4519 213.287 58.0759 213.559C57.6999 213.823 57.4079 214.215 57.1999 214.735C56.9919 215.247 56.8879 215.879 56.8879 216.631C56.8879 217.383 56.9919 218.019 57.1999 218.539C57.4079 219.051 57.6999 219.443 58.0759 219.715C58.4519 219.979 58.8799 220.111 59.3599 220.111Z"/>
</mask>
<path d="M59.3599 220.903C58.7119 220.903 58.1359 220.735 57.6319 220.399C57.1279 220.055 56.7319 219.567 56.4439 218.935C56.1559 218.295 56.0119 217.527 56.0119 216.631C56.0119 215.735 56.1559 214.971 56.4439 214.339C56.7319 213.699 57.1279 213.211 57.6319 212.875C58.1359 212.531 58.7119 212.359 59.3599 212.359C60.0079 212.359 60.5839 212.531 61.0879 212.875C61.5919 213.211 61.9879 213.699 62.2759 214.339C62.5719 214.971 62.7199 215.735 62.7199 216.631C62.7199 217.527 62.5719 218.295 62.2759 218.935C61.9879 219.567 61.5919 220.055 61.0879 220.399C60.5839 220.735 60.0079 220.903 59.3599 220.903ZM59.3599 220.111C59.8559 220.111 60.2879 219.979 60.6559 219.715C61.0239 219.443 61.3119 219.051 61.5199 218.539C61.7279 218.019 61.8319 217.383 61.8319 216.631C61.8319 215.879 61.7279 215.247 61.5199 214.735C61.3119 214.215 61.0239 213.823 60.6559 213.559C60.2879 213.287 59.8559 213.151 59.3599 213.151C58.8799 213.151 58.4519 213.287 58.0759 213.559C57.6999 213.823 57.4079 214.215 57.1999 214.735C56.9919 215.247 56.8879 215.879 56.8879 216.631C56.8879 217.383 56.9919 218.019 57.1999 218.539C57.4079 219.051 57.6999 219.443 58.0759 219.715C58.4519 219.979 58.8799 220.111 59.3599 220.111Z" fill="#333333"/>
<path d="M57.6319 220.399L57.012 221.308L57.022 221.314L57.6319 220.399ZM56.4439 218.935L55.4412 219.387L55.4434 219.391L56.4439 218.935ZM56.4439 214.339L57.4444 214.795L57.4466 214.791L56.4439 214.339ZM57.6319 212.875L58.2418 213.79L58.2517 213.784L57.6319 212.875ZM61.0879 212.875L60.468 213.784L60.478 213.79L61.0879 212.875ZM62.2759 214.339L61.2732 214.791L61.2767 214.798L61.2802 214.806L62.2759 214.339ZM62.2759 218.935L61.278 218.474L61.2754 218.479L62.2759 218.935ZM61.0879 220.399L61.6978 221.314L61.7077 221.308L61.0879 220.399ZM60.6559 219.715L61.2968 220.609L61.3032 220.604L61.3094 220.6L60.6559 219.715ZM61.5199 218.539L62.5386 218.953L62.5408 218.948L61.5199 218.539ZM61.5199 214.735L60.499 215.144L60.5013 215.149L61.5199 214.735ZM60.6559 213.559L60.0024 214.444L60.0087 214.448L60.015 214.453L60.6559 213.559ZM58.0759 213.559L58.7077 214.459L58.7141 214.455L58.7203 214.45L58.0759 213.559ZM57.1999 214.735L58.2186 215.149L58.2208 215.144L57.1999 214.735ZM57.1999 218.539L56.179 218.948L56.1813 218.953L57.1999 218.539ZM58.0759 219.715L57.4315 220.606L57.4378 220.611L57.4441 220.615L58.0759 219.715ZM59.3599 219.804C58.9131 219.804 58.5524 219.692 58.2418 219.485L57.022 221.314C57.7194 221.779 58.5107 222.003 59.3599 222.003V219.804ZM58.2517 219.491C57.9355 219.275 57.6609 218.955 57.4444 218.479L55.4434 219.391C55.8029 220.18 56.3203 220.835 57.0121 221.308L58.2517 219.491ZM57.4466 218.484C57.2375 218.02 57.1114 217.413 57.1114 216.631H54.9124C54.9124 217.642 55.0743 218.571 55.4412 219.387L57.4466 218.484ZM57.1114 216.631C57.1114 215.849 57.2377 215.249 57.4444 214.795L55.4434 213.883C55.0741 214.694 54.9124 215.622 54.9124 216.631H57.1114ZM57.4466 214.791C57.6635 214.309 57.9355 213.994 58.2418 213.79L57.022 211.961C56.3203 212.428 55.8003 213.09 55.4412 213.888L57.4466 214.791ZM58.2517 213.784C58.5615 213.572 58.9186 213.459 59.3599 213.459V211.26C58.5052 211.26 57.7103 211.491 57.0121 211.967L58.2517 213.784ZM59.3599 213.459C59.8012 213.459 60.1583 213.572 60.4681 213.784L61.7077 211.967C61.0095 211.491 60.2146 211.26 59.3599 211.26V213.459ZM60.478 213.79C60.7843 213.994 61.0563 214.309 61.2732 214.791L63.2786 213.888C62.9195 213.09 62.3995 212.428 61.6978 211.961L60.478 213.79ZM61.2802 214.806C61.4913 215.257 61.6204 215.852 61.6204 216.631H63.8194C63.8194 215.618 63.6525 214.686 63.2716 213.873L61.2802 214.806ZM61.6204 216.631C61.6204 217.41 61.4915 218.012 61.278 218.474L63.2738 219.397C63.6523 218.579 63.8194 217.645 63.8194 216.631H61.6204ZM61.2754 218.479C61.0589 218.955 60.7843 219.275 60.4681 219.491L61.7077 221.308C62.3995 220.835 62.9169 220.18 63.2764 219.391L61.2754 218.479ZM60.478 219.485C60.1674 219.692 59.8067 219.804 59.3599 219.804V222.003C60.2091 222.003 61.0004 221.779 61.6978 221.314L60.478 219.485ZM59.3599 221.211C60.0628 221.211 60.7241 221.02 61.2968 220.609L60.015 218.822C59.8517 218.939 59.649 219.012 59.3599 219.012V221.211ZM61.3094 220.6C61.871 220.185 62.2703 219.614 62.5386 218.953L60.5013 218.126C60.3535 218.489 60.1769 218.702 60.0024 218.831L61.3094 220.6ZM62.5408 218.948C62.8152 218.262 62.9314 217.478 62.9314 216.631H60.7324C60.7324 217.289 60.6406 217.777 60.499 218.131L62.5408 218.948ZM62.9314 216.631C62.9314 215.786 62.8154 215.003 62.5386 214.322L60.5013 215.149C60.6404 215.492 60.7324 215.973 60.7324 216.631H62.9314ZM62.5408 214.327C62.2734 213.659 61.8714 213.078 61.2968 212.666L60.015 214.453C60.1764 214.569 60.3505 214.772 60.499 215.144L62.5408 214.327ZM61.3094 212.675C60.7361 212.251 60.0703 212.052 59.3599 212.052V214.251C59.6415 214.251 59.8397 214.323 60.0024 214.444L61.3094 212.675ZM59.3599 212.052C58.657 212.052 58.0017 212.256 57.4315 212.669L58.7203 214.45C58.9021 214.319 59.1028 214.251 59.3599 214.251V212.052ZM57.4441 212.66C56.8586 213.071 56.4488 213.653 56.179 214.327L58.2208 215.144C58.367 214.778 58.5413 214.576 58.7077 214.459L57.4441 212.66ZM56.1813 214.322C55.9044 215.003 55.7884 215.786 55.7884 216.631H57.9874C57.9874 215.973 58.0794 215.492 58.2186 215.149L56.1813 214.322ZM55.7884 216.631C55.7884 217.478 55.9046 218.262 56.179 218.948L58.2208 218.131C58.0792 217.777 57.9874 217.289 57.9874 216.631H55.7884ZM56.1813 218.953C56.4519 219.619 56.859 220.192 57.4315 220.606L58.7203 218.825C58.5408 218.695 58.364 218.483 58.2186 218.126L56.1813 218.953ZM57.4441 220.615C58.0138 221.015 58.6645 221.211 59.3599 221.211V219.012C59.0953 219.012 58.89 218.944 58.7077 218.816L57.4441 220.615Z" fill="#333333" mask="url(#path-9-inside-1_1_400)"/>
<mask id="path-11-inside-2_1_400" fill="white">
<path d="M51.867 156.033C51.267 156.033 50.695 155.937 50.151 155.745C49.607 155.545 49.175 155.281 48.855 154.953L49.275 154.269C49.539 154.549 49.899 154.781 50.355 154.965C50.819 155.149 51.319 155.241 51.855 155.241C52.567 155.241 53.107 155.085 53.475 154.773C53.851 154.453 54.039 154.037 54.039 153.525C54.039 153.165 53.951 152.857 53.775 152.601C53.607 152.337 53.319 152.133 52.911 151.989C52.503 151.845 51.943 151.773 51.231 151.773H49.443L49.875 147.561H54.471V148.329H50.223L50.667 147.909L50.295 151.437L49.851 151.005H51.423C52.271 151.005 52.951 151.109 53.463 151.317C53.975 151.525 54.343 151.817 54.567 152.193C54.799 152.561 54.915 152.993 54.915 153.489C54.915 153.961 54.803 154.393 54.579 154.785C54.355 155.169 54.019 155.473 53.571 155.697C53.123 155.921 52.555 156.033 51.867 156.033ZM59.3599 156.033C58.7119 156.033 58.1359 155.865 57.6319 155.529C57.1279 155.185 56.7319 154.697 56.4439 154.065C56.1559 153.425 56.0119 152.657 56.0119 151.761C56.0119 150.865 56.1559 150.101 56.4439 149.469C56.7319 148.829 57.1279 148.341 57.6319 148.005C58.1359 147.661 58.7119 147.489 59.3599 147.489C60.0079 147.489 60.5839 147.661 61.0879 148.005C61.5919 148.341 61.9879 148.829 62.2759 149.469C62.5719 150.101 62.7199 150.865 62.7199 151.761C62.7199 152.657 62.5719 153.425 62.2759 154.065C61.9879 154.697 61.5919 155.185 61.0879 155.529C60.5839 155.865 60.0079 156.033 59.3599 156.033ZM59.3599 155.241C59.8559 155.241 60.2879 155.109 60.6559 154.845C61.0239 154.573 61.3119 154.181 61.5199 153.669C61.7279 153.149 61.8319 152.513 61.8319 151.761C61.8319 151.009 61.7279 150.377 61.5199 149.865C61.3119 149.345 61.0239 148.953 60.6559 148.689C60.2879 148.417 59.8559 148.281 59.3599 148.281C58.8799 148.281 58.4519 148.417 58.0759 148.689C57.6999 148.953 57.4079 149.345 57.1999 149.865C56.9919 150.377 56.8879 151.009 56.8879 151.761C56.8879 152.513 56.9919 153.149 57.1999 153.669C57.4079 154.181 57.6999 154.573 58.0759 154.845C58.4519 155.109 58.8799 155.241 59.3599 155.241Z"/>
</mask>
<path d="M51.867 156.033C51.267 156.033 50.695 155.937 50.151 155.745C49.607 155.545 49.175 155.281 48.855 154.953L49.275 154.269C49.539 154.549 49.899 154.781 50.355 154.965C50.819 155.149 51.319 155.241 51.855 155.241C52.567 155.241 53.107 155.085 53.475 154.773C53.851 154.453 54.039 154.037 54.039 153.525C54.039 153.165 53.951 152.857 53.775 152.601C53.607 152.337 53.319 152.133 52.911 151.989C52.503 151.845 51.943 151.773 51.231 151.773H49.443L49.875 147.561H54.471V148.329H50.223L50.667 147.909L50.295 151.437L49.851 151.005H51.423C52.271 151.005 52.951 151.109 53.463 151.317C53.975 151.525 54.343 151.817 54.567 152.193C54.799 152.561 54.915 152.993 54.915 153.489C54.915 153.961 54.803 154.393 54.579 154.785C54.355 155.169 54.019 155.473 53.571 155.697C53.123 155.921 52.555 156.033 51.867 156.033ZM59.3599 156.033C58.7119 156.033 58.1359 155.865 57.6319 155.529C57.1279 155.185 56.7319 154.697 56.4439 154.065C56.1559 153.425 56.0119 152.657 56.0119 151.761C56.0119 150.865 56.1559 150.101 56.4439 149.469C56.7319 148.829 57.1279 148.341 57.6319 148.005C58.1359 147.661 58.7119 147.489 59.3599 147.489C60.0079 147.489 60.5839 147.661 61.0879 148.005C61.5919 148.341 61.9879 148.829 62.2759 149.469C62.5719 150.101 62.7199 150.865 62.7199 151.761C62.7199 152.657 62.5719 153.425 62.2759 154.065C61.9879 154.697 61.5919 155.185 61.0879 155.529C60.5839 155.865 60.0079 156.033 59.3599 156.033ZM59.3599 155.241C59.8559 155.241 60.2879 155.109 60.6559 154.845C61.0239 154.573 61.3119 154.181 61.5199 153.669C61.7279 153.149 61.8319 152.513 61.8319 151.761C61.8319 151.009 61.7279 150.377 61.5199 149.865C61.3119 149.345 61.0239 148.953 60.6559 148.689C60.2879 148.417 59.8559 148.281 59.3599 148.281C58.8799 148.281 58.4519 148.417 58.0759 148.689C57.6999 148.953 57.4079 149.345 57.1999 149.865C56.9919 150.377 56.8879 151.009 56.8879 151.761C56.8879 152.513 56.9919 153.149 57.1999 153.669C57.4079 154.181 57.6999 154.573 58.0759 154.845C58.4519 155.109 58.8799 155.241 59.3599 155.241Z" fill="#333333"/>
<path d="M50.151 155.745L49.7716 156.777L49.7784 156.779L49.7851 156.782L50.151 155.745ZM48.855 154.953L47.9181 154.378L47.4698 155.108L48.068 155.721L48.855 154.953ZM49.275 154.269L50.075 153.515L49.0897 152.47L48.3381 153.694L49.275 154.269ZM50.355 154.965L49.9436 155.985L49.9497 155.987L50.355 154.965ZM53.475 154.773L54.1861 155.612L54.1876 155.61L53.475 154.773ZM53.775 152.601L52.8474 153.191L52.8579 153.208L52.869 153.224L53.775 152.601ZM52.911 151.989L53.277 150.952L53.277 150.952L52.911 151.989ZM49.443 151.773L48.3493 151.661L48.225 152.872H49.443V151.773ZM49.875 147.561V146.461H48.8825L48.7813 147.449L49.875 147.561ZM54.471 147.561H55.5705V146.461H54.471V147.561ZM54.471 148.329V149.428H55.5705V148.329H54.471ZM50.223 148.329L49.4675 147.53L47.4607 149.428H50.223V148.329ZM50.667 147.909L51.7605 148.024L52.0724 145.066L49.9115 147.11L50.667 147.909ZM50.295 151.437L49.5283 152.225L51.1511 153.804L51.3885 151.552L50.295 151.437ZM49.851 151.005V149.905H47.1443L49.0843 151.793L49.851 151.005ZM54.567 152.193L53.6225 152.756L53.6295 152.768L53.6369 152.779L54.567 152.193ZM54.579 154.785L55.5288 155.339L55.5337 155.33L54.579 154.785ZM53.571 155.697L53.0793 154.714L53.0793 154.714L53.571 155.697ZM51.867 154.933C51.3866 154.933 50.9388 154.857 50.517 154.708L49.7851 156.782C50.4513 157.017 51.1474 157.132 51.867 157.132V154.933ZM50.5304 154.713C50.1008 154.555 49.8214 154.369 49.642 154.185L48.068 155.721C48.5287 156.193 49.1133 156.535 49.7716 156.777L50.5304 154.713ZM49.792 155.528L50.212 154.844L48.3381 153.694L47.9181 154.378L49.792 155.528ZM48.4751 155.023C48.8737 155.446 49.3799 155.757 49.9436 155.985L50.7665 153.945C50.4182 153.805 50.2044 153.652 50.075 153.515L48.4751 155.023ZM49.9497 155.987C50.552 156.226 51.1906 156.34 51.855 156.34V154.141C51.4475 154.141 51.0861 154.072 50.7603 153.943L49.9497 155.987ZM51.855 156.34C52.7071 156.34 53.5437 156.156 54.1861 155.612L52.764 153.934C52.6704 154.014 52.427 154.141 51.855 154.141V156.34ZM54.1876 155.61C54.8193 155.073 55.1385 154.346 55.1385 153.525H52.9395C52.9395 153.728 52.8827 153.833 52.7624 153.936L54.1876 155.61ZM55.1385 153.525C55.1385 152.979 55.0022 152.445 54.6811 151.978L52.869 153.224C52.8999 153.269 52.9395 153.351 52.9395 153.525H55.1385ZM54.7026 152.011C54.3602 151.473 53.8294 151.147 53.277 150.952L52.5451 153.026C52.674 153.071 52.7527 153.115 52.7975 153.147C52.8193 153.163 52.8322 153.174 52.839 153.181C52.8425 153.185 52.8446 153.188 52.8458 153.189C52.8464 153.19 52.8468 153.19 52.8471 153.191C52.8473 153.191 52.8474 153.191 52.8474 153.191L54.7026 152.011ZM53.277 150.952C52.7 150.748 51.998 150.673 51.231 150.673V152.872C51.8881 152.872 52.3061 152.941 52.5451 153.026L53.277 150.952ZM51.231 150.673H49.443V152.872H51.231V150.673ZM50.5368 151.885L50.9688 147.673L48.7813 147.449L48.3493 151.661L50.5368 151.885ZM49.875 148.66H54.471V146.461H49.875V148.66ZM53.3715 147.561V148.329H55.5705V147.561H53.3715ZM54.471 147.229H50.223V149.428H54.471V147.229ZM50.9786 149.128L51.4226 148.708L49.9115 147.11L49.4675 147.53L50.9786 149.128ZM49.5736 147.794L49.2016 151.322L51.3885 151.552L51.7605 148.024L49.5736 147.794ZM51.0618 150.649L50.6178 150.217L49.0843 151.793L49.5283 152.225L51.0618 150.649ZM49.851 152.104H51.423V149.905H49.851V152.104ZM51.423 152.104C52.1971 152.104 52.7196 152.202 53.0492 152.336L53.8769 150.298C53.1825 150.016 52.3449 149.905 51.423 149.905V152.104ZM53.0492 152.336C53.3984 152.477 53.55 152.634 53.6225 152.756L55.5116 151.63C55.136 151 54.5517 150.572 53.8769 150.298L53.0492 152.336ZM53.6369 152.779C53.7434 152.948 53.8155 153.171 53.8155 153.489H56.0145C56.0145 152.815 55.8547 152.174 55.4971 151.607L53.6369 152.779ZM53.8155 153.489C53.8155 153.779 53.7491 154.021 53.6244 154.239L55.5337 155.33C55.857 154.765 56.0145 154.143 56.0145 153.489H53.8155ZM53.6293 154.231C53.5263 154.408 53.3612 154.573 53.0793 154.714L54.0627 156.68C54.6769 156.373 55.1838 155.93 55.5288 155.339L53.6293 154.231ZM53.0793 154.714C52.8301 154.838 52.4447 154.933 51.867 154.933V157.132C52.6654 157.132 53.416 157.004 54.0627 156.68L53.0793 154.714ZM57.6319 155.529L57.012 156.437L57.022 156.444L57.6319 155.529ZM56.4439 154.065L55.4412 154.516L55.4434 154.521L56.4439 154.065ZM56.4439 149.469L57.4444 149.925L57.4466 149.92L56.4439 149.469ZM57.6319 148.005L58.2418 148.92L58.2517 148.913L57.6319 148.005ZM61.0879 148.005L60.468 148.913L60.478 148.92L61.0879 148.005ZM62.2759 149.469L61.2733 149.92L61.2767 149.928L61.2802 149.935L62.2759 149.469ZM62.2759 154.065L61.278 153.603L61.2754 153.609L62.2759 154.065ZM61.0879 155.529L61.6978 156.444L61.7077 156.437L61.0879 155.529ZM60.6559 154.845L61.2968 155.738L61.3032 155.734L61.3094 155.729L60.6559 154.845ZM61.5199 153.669L62.5386 154.083L62.5408 154.077L61.5199 153.669ZM61.5199 149.865L60.499 150.273L60.5013 150.279L61.5199 149.865ZM60.6559 148.689L60.0024 149.573L60.0087 149.578L60.015 149.582L60.6559 148.689ZM58.0759 148.689L58.7077 149.589L58.7141 149.584L58.7204 149.58L58.0759 148.689ZM57.1999 149.865L58.2186 150.279L58.2208 150.273L57.1999 149.865ZM57.1999 153.669L56.179 154.077L56.1813 154.083L57.1999 153.669ZM58.0759 154.845L57.4315 155.736L57.4378 155.74L57.4441 155.745L58.0759 154.845ZM59.3599 154.933C58.9131 154.933 58.5524 154.821 58.2418 154.614L57.022 156.444C57.7194 156.909 58.5107 157.132 59.3599 157.132V154.933ZM58.2517 154.621C57.9355 154.405 57.6609 154.084 57.4444 153.609L55.4434 154.521C55.8029 155.31 56.3203 155.965 57.0121 156.437L58.2517 154.621ZM57.4466 153.614C57.2375 153.149 57.1114 152.543 57.1114 151.761H54.9124C54.9124 152.771 55.0743 153.701 55.4413 154.516L57.4466 153.614ZM57.1114 151.761C57.1114 150.978 57.2377 150.379 57.4444 149.925L55.4434 149.013C55.0741 149.823 54.9124 150.751 54.9124 151.761H57.1114ZM57.4466 149.92C57.6635 149.438 57.9355 149.124 58.2418 148.92L57.022 147.09C56.3203 147.558 55.8003 148.22 55.4413 149.018L57.4466 149.92ZM58.2517 148.913C58.5615 148.702 58.9186 148.588 59.3599 148.588V146.389C58.5052 146.389 57.7103 146.62 57.0121 147.097L58.2517 148.913ZM59.3599 148.588C59.8012 148.588 60.1583 148.702 60.4681 148.913L61.7077 147.097C61.0095 146.62 60.2146 146.389 59.3599 146.389V148.588ZM60.478 148.92C60.7843 149.124 61.0563 149.438 61.2733 149.92L63.2786 149.018C62.9195 148.22 62.3995 147.558 61.6978 147.09L60.478 148.92ZM61.2802 149.935C61.4913 150.386 61.6204 150.982 61.6204 151.761H63.8194C63.8194 150.748 63.6525 149.816 63.2716 149.003L61.2802 149.935ZM61.6204 151.761C61.6204 152.539 61.4915 153.142 61.278 153.603L63.2738 154.526C63.6523 153.708 63.8194 152.775 63.8194 151.761H61.6204ZM61.2754 153.609C61.0589 154.084 60.7843 154.405 60.4681 154.621L61.7077 156.437C62.3995 155.965 62.9169 155.31 63.2764 154.521L61.2754 153.609ZM60.478 154.614C60.1674 154.821 59.8067 154.933 59.3599 154.933V157.132C60.2091 157.132 61.0004 156.909 61.6978 156.444L60.478 154.614ZM59.3599 156.34C60.0628 156.34 60.7241 156.149 61.2968 155.738L60.015 153.952C59.8517 154.069 59.649 154.141 59.3599 154.141V156.34ZM61.3094 155.729C61.871 155.314 62.2703 154.743 62.5386 154.083L60.5013 153.255C60.3535 153.619 60.1769 153.832 60.0024 153.961L61.3094 155.729ZM62.5408 154.077C62.8152 153.391 62.9314 152.608 62.9314 151.761H60.7324C60.7324 152.418 60.6406 152.907 60.4991 153.261L62.5408 154.077ZM62.9314 151.761C62.9314 150.915 62.8155 150.133 62.5386 149.451L60.5013 150.279C60.6404 150.621 60.7324 151.103 60.7324 151.761H62.9314ZM62.5408 149.457C62.2734 148.788 61.8714 148.208 61.2968 147.796L60.015 149.582C60.1764 149.698 60.3505 149.902 60.4991 150.273L62.5408 149.457ZM61.3094 147.805C60.7361 147.381 60.0703 147.181 59.3599 147.181V149.38C59.6415 149.38 59.8397 149.453 60.0024 149.573L61.3094 147.805ZM59.3599 147.181C58.657 147.181 58.0017 147.386 57.4315 147.798L58.7204 149.58C58.9021 149.448 59.1028 149.38 59.3599 149.38V147.181ZM57.4441 147.789C56.8586 148.2 56.4488 148.782 56.179 149.457L58.2208 150.273C58.367 149.908 58.5413 149.706 58.7077 149.589L57.4441 147.789ZM56.1813 149.451C55.9044 150.133 55.7884 150.915 55.7884 151.761H57.9874C57.9874 151.103 58.0795 150.621 58.2186 150.279L56.1813 149.451ZM55.7884 151.761C55.7884 152.608 55.9046 153.391 56.1791 154.077L58.2208 153.261C58.0792 152.907 57.9874 152.418 57.9874 151.761H55.7884ZM56.1813 154.083C56.4519 154.749 56.859 155.322 57.4315 155.736L58.7204 153.954C58.5408 153.824 58.364 153.613 58.2186 153.255L56.1813 154.083ZM57.4441 155.745C58.0138 156.145 58.6645 156.34 59.3599 156.34V154.141C59.0953 154.141 58.89 154.073 58.7077 153.945L57.4441 155.745Z" fill="#333333" mask="url(#path-11-inside-2_1_400)"/>
<mask id="path-13-inside-3_1_400" fill="white">
<path d="M45.1946 91.0905V83.0505L45.5786 83.4585H43.2146V82.6905H46.0586V91.0905H45.1946ZM51.4146 91.1625C50.7666 91.1625 50.1906 90.9945 49.6866 90.6585C49.1826 90.3145 48.7866 89.8265 48.4986 89.1945C48.2106 88.5545 48.0666 87.7865 48.0666 86.8905C48.0666 85.9945 48.2106 85.2305 48.4986 84.5985C48.7866 83.9585 49.1826 83.4705 49.6866 83.1345C50.1906 82.7905 50.7666 82.6185 51.4146 82.6185C52.0626 82.6185 52.6386 82.7905 53.1426 83.1345C53.6466 83.4705 54.0426 83.9585 54.3306 84.5985C54.6266 85.2305 54.7746 85.9945 54.7746 86.8905C54.7746 87.7865 54.6266 88.5545 54.3306 89.1945C54.0426 89.8265 53.6466 90.3145 53.1426 90.6585C52.6386 90.9945 52.0626 91.1625 51.4146 91.1625ZM51.4146 90.3705C51.9106 90.3705 52.3426 90.2385 52.7106 89.9745C53.0786 89.7025 53.3666 89.3105 53.5746 88.7985C53.7826 88.2785 53.8866 87.6425 53.8866 86.8905C53.8866 86.1385 53.7826 85.5065 53.5746 84.9945C53.3666 84.4745 53.0786 84.0825 52.7106 83.8185C52.3426 83.5465 51.9106 83.4105 51.4146 83.4105C50.9346 83.4105 50.5066 83.5465 50.1306 83.8185C49.7546 84.0825 49.4626 84.4745 49.2546 84.9945C49.0466 85.5065 48.9426 86.1385 48.9426 86.8905C48.9426 87.6425 49.0466 88.2785 49.2546 88.7985C49.4626 89.3105 49.7546 89.7025 50.1306 89.9745C50.5066 90.2385 50.9346 90.3705 51.4146 90.3705ZM59.3599 91.1625C58.7119 91.1625 58.1359 90.9945 57.6319 90.6585C57.1279 90.3145 56.7319 89.8265 56.4439 89.1945C56.1559 88.5545 56.0119 87.7865 56.0119 86.8905C56.0119 85.9945 56.1559 85.2305 56.4439 84.5985C56.7319 83.9585 57.1279 83.4705 57.6319 83.1345C58.1359 82.7905 58.7119 82.6185 59.3599 82.6185C60.0079 82.6185 60.5839 82.7905 61.0879 83.1345C61.5919 83.4705 61.9879 83.9585 62.2759 84.5985C62.5719 85.2305 62.7199 85.9945 62.7199 86.8905C62.7199 87.7865 62.5719 88.5545 62.2759 89.1945C61.9879 89.8265 61.5919 90.3145 61.0879 90.6585C60.5839 90.9945 60.0079 91.1625 59.3599 91.1625ZM59.3599 90.3705C59.8559 90.3705 60.2879 90.2385 60.6559 89.9745C61.0239 89.7025 61.3119 89.3105 61.5199 88.7985C61.7279 88.2785 61.8319 87.6425 61.8319 86.8905C61.8319 86.1385 61.7279 85.5065 61.5199 84.9945C61.3119 84.4745 61.0239 84.0825 60.6559 83.8185C60.2879 83.5465 59.8559 83.4105 59.3599 83.4105C58.8799 83.4105 58.4519 83.5465 58.0759 83.8185C57.6999 84.0825 57.4079 84.4745 57.1999 84.9945C56.9919 85.5065 56.8879 86.1385 56.8879 86.8905C56.8879 87.6425 56.9919 88.2785 57.1999 88.7985C57.4079 89.3105 57.6999 89.7025 58.0759 89.9745C58.4519 90.2385 58.8799 90.3705 59.3599 90.3705Z"/>
</mask>
<path d="M45.1946 91.0905V83.0505L45.5786 83.4585H43.2146V82.6905H46.0586V91.0905H45.1946ZM51.4146 91.1625C50.7666 91.1625 50.1906 90.9945 49.6866 90.6585C49.1826 90.3145 48.7866 89.8265 48.4986 89.1945C48.2106 88.5545 48.0666 87.7865 48.0666 86.8905C48.0666 85.9945 48.2106 85.2305 48.4986 84.5985C48.7866 83.9585 49.1826 83.4705 49.6866 83.1345C50.1906 82.7905 50.7666 82.6185 51.4146 82.6185C52.0626 82.6185 52.6386 82.7905 53.1426 83.1345C53.6466 83.4705 54.0426 83.9585 54.3306 84.5985C54.6266 85.2305 54.7746 85.9945 54.7746 86.8905C54.7746 87.7865 54.6266 88.5545 54.3306 89.1945C54.0426 89.8265 53.6466 90.3145 53.1426 90.6585C52.6386 90.9945 52.0626 91.1625 51.4146 91.1625ZM51.4146 90.3705C51.9106 90.3705 52.3426 90.2385 52.7106 89.9745C53.0786 89.7025 53.3666 89.3105 53.5746 88.7985C53.7826 88.2785 53.8866 87.6425 53.8866 86.8905C53.8866 86.1385 53.7826 85.5065 53.5746 84.9945C53.3666 84.4745 53.0786 84.0825 52.7106 83.8185C52.3426 83.5465 51.9106 83.4105 51.4146 83.4105C50.9346 83.4105 50.5066 83.5465 50.1306 83.8185C49.7546 84.0825 49.4626 84.4745 49.2546 84.9945C49.0466 85.5065 48.9426 86.1385 48.9426 86.8905C48.9426 87.6425 49.0466 88.2785 49.2546 88.7985C49.4626 89.3105 49.7546 89.7025 50.1306 89.9745C50.5066 90.2385 50.9346 90.3705 51.4146 90.3705ZM59.3599 91.1625C58.7119 91.1625 58.1359 90.9945 57.6319 90.6585C57.1279 90.3145 56.7319 89.8265 56.4439 89.1945C56.1559 88.5545 56.0119 87.7865 56.0119 86.8905C56.0119 85.9945 56.1559 85.2305 56.4439 84.5985C56.7319 83.9585 57.1279 83.4705 57.6319 83.1345C58.1359 82.7905 58.7119 82.6185 59.3599 82.6185C60.0079 82.6185 60.5839 82.7905 61.0879 83.1345C61.5919 83.4705 61.9879 83.9585 62.2759 84.5985C62.5719 85.2305 62.7199 85.9945 62.7199 86.8905C62.7199 87.7865 62.5719 88.5545 62.2759 89.1945C61.9879 89.8265 61.5919 90.3145 61.0879 90.6585C60.5839 90.9945 60.0079 91.1625 59.3599 91.1625ZM59.3599 90.3705C59.8559 90.3705 60.2879 90.2385 60.6559 89.9745C61.0239 89.7025 61.3119 89.3105 61.5199 88.7985C61.7279 88.2785 61.8319 87.6425 61.8319 86.8905C61.8319 86.1385 61.7279 85.5065 61.5199 84.9945C61.3119 84.4745 61.0239 84.0825 60.6559 83.8185C60.2879 83.5465 59.8559 83.4105 59.3599 83.4105C58.8799 83.4105 58.4519 83.5465 58.0759 83.8185C57.6999 84.0825 57.4079 84.4745 57.1999 84.9945C56.9919 85.5065 56.8879 86.1385 56.8879 86.8905C56.8879 87.6425 56.9919 88.2785 57.1999 88.7985C57.4079 89.3105 57.6999 89.7025 58.0759 89.9745C58.4519 90.2385 58.8799 90.3705 59.3599 90.3705Z" fill="#333333"/>
<path d="M45.1946 91.0905H44.0951V92.19H45.1946V91.0905ZM45.1946 83.0505L45.9953 82.2969L44.0951 80.278V83.0505H45.1946ZM45.5786 83.4585V84.558H48.1234L46.3793 82.7049L45.5786 83.4585ZM43.2146 83.4585H42.1151V84.558H43.2146V83.4585ZM43.2146 82.6905V81.591H42.1151V82.6905H43.2146ZM46.0586 82.6905H47.1581V81.591H46.0586V82.6905ZM46.0586 91.0905V92.19H47.1581V91.0905H46.0586ZM46.2941 91.0905V83.0505H44.0951V91.0905H46.2941ZM44.394 83.804L44.778 84.212L46.3793 82.7049L45.9953 82.2969L44.394 83.804ZM45.5786 82.359H43.2146V84.558H45.5786V82.359ZM44.3141 83.4585V82.6905H42.1151V83.4585H44.3141ZM43.2146 83.79H46.0586V81.591H43.2146V83.79ZM44.9591 82.6905V91.0905H47.1581V82.6905H44.9591ZM46.0586 89.991H45.1946V92.19H46.0586V89.991ZM49.6866 90.6585L49.0667 91.5666L49.0767 91.5733L49.6866 90.6585ZM48.4986 89.1945L47.4959 89.6457L47.4981 89.6504L48.4986 89.1945ZM48.4986 84.5985L49.4991 85.0544L49.5012 85.0497L48.4986 84.5985ZM49.6866 83.1345L50.2965 84.0493L50.3064 84.0426L49.6866 83.1345ZM53.1426 83.1345L52.5227 84.0426L52.5327 84.0493L53.1426 83.1345ZM54.3306 84.5985L53.3279 85.0496L53.3313 85.0572L53.3349 85.0648L54.3306 84.5985ZM54.3306 89.1945L53.3326 88.7329L53.3301 88.7385L54.3306 89.1945ZM53.1426 90.6585L53.7525 91.5733L53.7624 91.5666L53.1426 90.6585ZM52.7106 89.9745L53.3515 90.8678L53.3578 90.8633L53.3641 90.8586L52.7106 89.9745ZM53.5746 88.7985L54.5932 89.2123L54.5954 89.2068L53.5746 88.7985ZM53.5746 84.9945L52.5537 85.4028L52.5559 85.4083L53.5746 84.9945ZM52.7106 83.8185L52.057 84.7026L52.0633 84.7073L52.0697 84.7118L52.7106 83.8185ZM50.1306 83.8185L50.7624 84.7183L50.7687 84.7138L50.775 84.7093L50.1306 83.8185ZM49.2546 84.9945L50.2732 85.4083L50.2754 85.4028L49.2546 84.9945ZM49.2546 88.7985L48.2337 89.2068L48.2359 89.2123L49.2546 88.7985ZM50.1306 89.9745L49.4861 90.8653L49.4924 90.8698L49.4988 90.8743L50.1306 89.9745ZM51.4146 90.063C50.9677 90.063 50.6071 89.9507 50.2965 89.7436L49.0767 91.5733C49.7741 92.0382 50.5654 92.262 51.4146 92.262V90.063ZM50.3064 89.7503C49.9901 89.5345 49.7156 89.2136 49.4991 88.7385L47.4981 89.6504C47.8575 90.4393 48.375 91.0945 49.0667 91.5666L50.3064 89.7503ZM49.5012 88.7433C49.2921 88.2786 49.1661 87.6724 49.1661 86.8905H46.9671C46.9671 87.9005 47.129 88.8303 47.4959 89.6457L49.5012 88.7433ZM49.1661 86.8905C49.1661 86.1079 49.2923 85.5081 49.4991 85.0544L47.4981 84.1425C47.1288 84.9528 46.9671 85.881 46.9671 86.8905H49.1661ZM49.5012 85.0497C49.7182 84.5676 49.9902 84.2535 50.2965 84.0493L49.0767 82.2196C48.375 82.6874 47.855 83.3493 47.4959 84.1473L49.5012 85.0497ZM50.3064 84.0426C50.6162 83.8312 50.9733 83.718 51.4146 83.718V81.519C50.5599 81.519 49.765 81.7497 49.0667 82.2263L50.3064 84.0426ZM51.4146 83.718C51.8559 83.718 52.213 83.8312 52.5227 84.0426L53.7624 82.2263C53.0642 81.7497 52.2693 81.519 51.4146 81.519V83.718ZM52.5327 84.0493C52.839 84.2535 53.111 84.5676 53.3279 85.0496L55.3332 84.1473C54.9742 83.3493 54.4542 82.6874 53.7525 82.2196L52.5327 84.0493ZM53.3349 85.0648C53.546 85.5156 53.6751 86.1115 53.6751 86.8905H55.8741C55.8741 85.8774 55.7072 84.9453 55.3263 84.1321L53.3349 85.0648ZM53.6751 86.8905C53.6751 87.6688 53.5462 88.2712 53.3326 88.7329L55.3285 89.656C55.707 88.8377 55.8741 87.9041 55.8741 86.8905H53.6751ZM53.3301 88.7385C53.1135 89.2136 52.839 89.5345 52.5227 89.7503L53.7624 91.5666C54.4541 91.0945 54.9716 90.4393 55.3311 89.6504L53.3301 88.7385ZM52.5327 89.7436C52.2221 89.9507 51.8614 90.063 51.4146 90.063V92.262C52.2637 92.262 53.0551 92.0382 53.7525 91.5733L52.5327 89.7436ZM51.4146 91.47C52.1175 91.47 52.7788 91.2787 53.3515 90.8678L52.0697 89.0811C51.9064 89.1982 51.7036 89.271 51.4146 89.271V91.47ZM53.3641 90.8586C53.9256 90.4436 54.325 89.8726 54.5932 89.2123L52.5559 88.3846C52.4082 88.7483 52.2315 88.9613 52.057 89.0903L53.3641 90.8586ZM54.5954 89.2068C54.8699 88.5207 54.9861 87.7372 54.9861 86.8905H52.7871C52.7871 87.5477 52.6953 88.0362 52.5537 88.3901L54.5954 89.2068ZM54.9861 86.8905C54.9861 86.0446 54.8701 85.2622 54.5932 84.5806L52.5559 85.4083C52.695 85.7507 52.7871 86.2323 52.7871 86.8905H54.9861ZM54.5954 84.5861C54.328 83.9176 53.926 83.3373 53.3515 82.9251L52.0697 84.7118C52.2311 84.8277 52.4051 85.0313 52.5537 85.4028L54.5954 84.5861ZM53.3641 82.9343C52.7908 82.5105 52.125 82.311 51.4146 82.311V84.51C51.6962 84.51 51.8944 84.5824 52.057 84.7026L53.3641 82.9343ZM51.4146 82.311C50.7116 82.311 50.0564 82.5151 49.4861 82.9276L50.775 84.7093C50.9567 84.5778 51.1575 84.51 51.4146 84.51V82.311ZM49.4988 82.9186C48.9132 83.3297 48.5035 83.9117 48.2337 84.5861L50.2754 85.4028C50.4217 85.0372 50.5959 84.8352 50.7624 84.7183L49.4988 82.9186ZM48.2359 84.5806C47.959 85.2622 47.8431 86.0446 47.8431 86.8905H50.0421C50.0421 86.2323 50.1341 85.7507 50.2732 85.4083L48.2359 84.5806ZM47.8431 86.8905C47.8431 87.7372 47.9593 88.5207 48.2337 89.2068L50.2754 88.3901C50.1339 88.0362 50.0421 87.5477 50.0421 86.8905H47.8431ZM48.2359 89.2123C48.5065 89.8784 48.9136 90.4511 49.4861 90.8653L50.775 89.0836C50.5955 88.9538 50.4186 88.7425 50.2732 88.3846L48.2359 89.2123ZM49.4988 90.8743C50.0684 91.2743 50.7192 91.47 51.4146 91.47V89.271C51.1499 89.271 50.9447 89.2026 50.7624 89.0746L49.4988 90.8743ZM57.6319 90.6585L57.012 91.5666L57.022 91.5733L57.6319 90.6585ZM56.4439 89.1945L55.4412 89.6457L55.4434 89.6504L56.4439 89.1945ZM56.4439 84.5985L57.4444 85.0544L57.4465 85.0497L56.4439 84.5985ZM57.6319 83.1345L58.2418 84.0493L58.2517 84.0426L57.6319 83.1345ZM61.0879 83.1345L60.468 84.0426L60.478 84.0493L61.0879 83.1345ZM62.2759 84.5985L61.2732 85.0496L61.2766 85.0572L61.2802 85.0648L62.2759 84.5985ZM62.2759 89.1945L61.2779 88.7329L61.2754 88.7385L62.2759 89.1945ZM61.0879 90.6585L61.6978 91.5733L61.7077 91.5666L61.0879 90.6585ZM60.6559 89.9745L61.2968 90.8678L61.3031 90.8633L61.3094 90.8586L60.6559 89.9745ZM61.5199 88.7985L62.5386 89.2123L62.5407 89.2068L61.5199 88.7985ZM61.5199 84.9945L60.499 85.4028L60.5012 85.4083L61.5199 84.9945ZM60.6559 83.8185L60.0024 84.7026L60.0086 84.7073L60.015 84.7118L60.6559 83.8185ZM58.0759 83.8185L58.7077 84.7183L58.714 84.7138L58.7203 84.7093L58.0759 83.8185ZM57.1999 84.9945L58.2186 85.4083L58.2207 85.4028L57.1999 84.9945ZM57.1999 88.7985L56.179 89.2068L56.1812 89.2123L57.1999 88.7985ZM58.0759 89.9745L57.4314 90.8653L57.4377 90.8698L57.4441 90.8743L58.0759 89.9745ZM59.3599 90.063C58.9131 90.063 58.5524 89.9507 58.2418 89.7436L57.022 91.5733C57.7194 92.0382 58.5107 92.262 59.3599 92.262V90.063ZM58.2517 89.7503C57.9355 89.5345 57.6609 89.2136 57.4444 88.7385L55.4434 89.6504C55.8029 90.4393 56.3203 91.0945 57.012 91.5666L58.2517 89.7503ZM57.4465 88.7433C57.2374 88.2786 57.1114 87.6724 57.1114 86.8905H54.9124C54.9124 87.9005 55.0743 88.8303 55.4412 89.6457L57.4465 88.7433ZM57.1114 86.8905C57.1114 86.1079 57.2376 85.5081 57.4444 85.0544L55.4434 84.1425C55.0741 84.9528 54.9124 85.881 54.9124 86.8905H57.1114ZM57.4465 85.0497C57.6635 84.5676 57.9355 84.2535 58.2418 84.0493L57.022 82.2196C56.3203 82.6874 55.8003 83.3493 55.4412 84.1473L57.4465 85.0497ZM58.2517 84.0426C58.5615 83.8312 58.9186 83.718 59.3599 83.718V81.519C58.5052 81.519 57.7103 81.7497 57.012 82.2263L58.2517 84.0426ZM59.3599 83.718C59.8012 83.718 60.1583 83.8312 60.468 84.0426L61.7077 82.2263C61.0095 81.7497 60.2146 81.519 59.3599 81.519V83.718ZM60.478 84.0493C60.7843 84.2535 61.0563 84.5676 61.2732 85.0496L63.2785 84.1473C62.9195 83.3493 62.3995 82.6874 61.6978 82.2196L60.478 84.0493ZM61.2802 85.0648C61.4913 85.5156 61.6204 86.1115 61.6204 86.8905H63.8194C63.8194 85.8774 63.6525 84.9453 63.2716 84.1321L61.2802 85.0648ZM61.6204 86.8905C61.6204 87.6688 61.4915 88.2712 61.2779 88.7329L63.2738 89.656C63.6523 88.8377 63.8194 87.9041 63.8194 86.8905H61.6204ZM61.2754 88.7385C61.0589 89.2136 60.7843 89.5345 60.468 89.7503L61.7077 91.5666C62.3995 91.0945 62.9169 90.4393 63.2764 89.6504L61.2754 88.7385ZM60.478 89.7436C60.1674 89.9507 59.8067 90.063 59.3599 90.063V92.262C60.2091 92.262 61.0004 92.0382 61.6978 91.5733L60.478 89.7436ZM59.3599 91.47C60.0628 91.47 60.7241 91.2787 61.2968 90.8678L60.015 89.0811C59.8517 89.1982 59.649 89.271 59.3599 89.271V91.47ZM61.3094 90.8586C61.8709 90.4436 62.2703 89.8726 62.5385 89.2123L60.5012 88.3846C60.3535 88.7483 60.1768 88.9613 60.0024 89.0903L61.3094 90.8586ZM62.5407 89.2068C62.8152 88.5207 62.9314 87.7372 62.9314 86.8905H60.7324C60.7324 87.5477 60.6406 88.0362 60.499 88.3901L62.5407 89.2068ZM62.9314 86.8905C62.9314 86.0446 62.8154 85.2622 62.5385 84.5806L60.5012 85.4083C60.6403 85.7507 60.7324 86.2323 60.7324 86.8905H62.9314ZM62.5407 84.5861C62.2733 83.9176 61.8714 83.3373 61.2968 82.9251L60.015 84.7118C60.1764 84.8277 60.3504 85.0313 60.499 85.4028L62.5407 84.5861ZM61.3094 82.9343C60.7361 82.5105 60.0703 82.311 59.3599 82.311V84.51C59.6415 84.51 59.8397 84.5824 60.0024 84.7026L61.3094 82.9343ZM59.3599 82.311C58.657 82.311 58.0017 82.5151 57.4314 82.9276L58.7203 84.7093C58.9021 84.5778 59.1028 84.51 59.3599 84.51V82.311ZM57.4441 82.9186C56.8585 83.3297 56.4488 83.9117 56.179 84.5861L58.2207 85.4028C58.367 85.0372 58.5412 84.8352 58.7077 84.7183L57.4441 82.9186ZM56.1812 84.5806C55.9043 85.2622 55.7884 86.0446 55.7884 86.8905H57.9874C57.9874 86.2323 58.0794 85.7507 58.2185 85.4083L56.1812 84.5806ZM55.7884 86.8905C55.7884 87.7372 55.9046 88.5207 56.179 89.2068L58.2207 88.3901C58.0792 88.0362 57.9874 87.5477 57.9874 86.8905H55.7884ZM56.1812 89.2123C56.4518 89.8784 56.8589 90.4511 57.4314 90.8653L58.7203 89.0836C58.5408 88.9538 58.3639 88.7425 58.2185 88.3846L56.1812 89.2123ZM57.4441 90.8743C58.0138 91.2743 58.6645 91.47 59.3599 91.47V89.271C59.0953 89.271 58.89 89.2026 58.7077 89.0746L57.4441 90.8743Z" fill="#333333" mask="url(#path-13-inside-3_1_400)"/>
<path d="M96.0759 213.752H695.701" stroke="#F2F2F2" stroke-width="1.0995"/>
<path d="M96.0759 181.317H695.701" stroke="#F2F2F2" stroke-width="1.0995"/>
<path d="M96.0759 148.882H695.701" stroke="#F2F2F2" stroke-width="1.0995"/>
<path d="M96.0759 116.447H695.701" stroke="#F2F2F2" stroke-width="1.0995"/>
<path d="M96.0759 84.011H695.701" stroke="#F2F2F2" stroke-width="1.0995"/>
<path d="M96.0759 84.0111V213.752" stroke="#F2F2F2" stroke-width="1.0995"/>
<path d="M195.973 84.011V213.752" stroke="#F2F2F2" stroke-width="1.0995"/>
<path d="M295.871 84.011V213.752" stroke="#F2F2F2" stroke-width="1.0995"/>
<path d="M395.768 84.011V213.752" stroke="#F2F2F2" stroke-width="1.0995"/>
<path d="M495.666 84.011V213.752" stroke="#F2F2F2" stroke-width="1.0995"/>
<path d="M595.563 84.011V213.752" stroke="#F2F2F2" stroke-width="1.0995"/>
<path d="M695.461 84.011V213.752" stroke="#F2F2F2" stroke-width="1.0995"/>
<path d="M96.2702 191.552C125.883 134.007 165.468 115.773 196.168 142.041C222.452 164.532 258.648 214.071 296.065 191.682C333.483 169.292 342.278 86.3097 395.963 86.3096C449.647 86.3094 473.343 154.122 495.86 181.313C518.378 208.505 558.774 177.112 596.107 149.366C633.44 121.619 653.463 104.173 695.655 95.6414" stroke="#FF8714" stroke-width="1.9791"/>
<path d="M96.2702 85.2101V214.187" stroke="#F2F2F2" stroke-width="1.0995"/>
<path d="M195.692 143.709C197.146 143.709 198.324 142.522 198.324 141.059C198.324 139.596 197.146 138.41 195.692 138.41C194.238 138.41 193.06 139.596 193.06 141.059C193.06 142.522 194.238 143.709 195.692 143.709Z" fill="#2C8AA0"/>
<path d="M96.7083 193.765C98.1622 193.765 99.3408 192.579 99.3408 191.116C99.3408 189.653 98.1622 188.466 96.7083 188.466C95.2545 188.466 94.0759 189.653 94.0759 191.116C94.0759 192.579 95.2545 193.765 96.7083 193.765Z" fill="#2C8AA0"/>
<path d="M295.78 194.065C297.234 194.065 298.412 192.879 298.412 191.415C298.412 189.952 297.234 188.766 295.78 188.766C294.326 188.766 293.147 189.952 293.147 191.415C293.147 192.879 294.326 194.065 295.78 194.065Z" fill="#2C8AA0"/>
<path d="M395.619 88.3099C397.073 88.3099 398.252 87.1237 398.252 85.6605C398.252 84.1972 397.073 83.011 395.619 83.011C394.166 83.011 392.987 84.1972 392.987 85.6605C392.987 87.1237 394.166 88.3099 395.619 88.3099Z" fill="#2C8AA0"/>
<path d="M495.453 183.162C496.907 183.162 498.085 181.976 498.085 180.513C498.085 179.049 496.907 177.863 495.453 177.863C493.999 177.863 492.821 179.049 492.821 180.513C492.821 181.976 493.999 183.162 495.453 183.162Z" fill="#2C8AA0"/>
<path d="M594.944 152.466C596.397 152.466 597.576 151.28 597.576 149.817C597.576 148.353 596.397 147.167 594.944 147.167C593.49 147.167 592.311 148.353 592.311 149.817C592.311 151.28 593.49 152.466 594.944 152.466Z" fill="#2C8AA0"/>
<path d="M696.131 97.7309C697.585 97.7309 698.764 96.5447 698.764 95.0814C698.764 93.6182 697.585 92.432 696.131 92.432C694.677 92.432 693.499 93.6182 693.499 95.0814C693.499 96.5447 694.677 97.7309 696.131 97.7309Z" fill="#2C8AA0"/>
<rect x="545.726" y="158.013" width="99.6749" height="45" rx="5" fill="#2D3748"/>
<path d="M562.184 184V174.9L562.982 175.726H560.112V174.2H564.004V184H562.184ZM565.822 184V182.782L569.714 179.086C570.041 178.778 570.283 178.507 570.442 178.274C570.601 178.041 570.703 177.826 570.75 177.63C570.806 177.425 570.834 177.233 570.834 177.056C570.834 176.608 570.68 176.263 570.372 176.02C570.064 175.768 569.611 175.642 569.014 175.642C568.538 175.642 568.104 175.726 567.712 175.894C567.329 176.062 566.998 176.319 566.718 176.664L565.444 175.684C565.827 175.171 566.34 174.774 566.984 174.494C567.637 174.205 568.365 174.06 569.168 174.06C569.877 174.06 570.493 174.177 571.016 174.41C571.548 174.634 571.954 174.956 572.234 175.376C572.523 175.796 572.668 176.295 572.668 176.874C572.668 177.191 572.626 177.509 572.542 177.826C572.458 178.134 572.299 178.461 572.066 178.806C571.833 179.151 571.492 179.539 571.044 179.968L567.698 183.146L567.32 182.46H573.046V184H565.822ZM577.176 184.14C576.486 184.14 575.809 184.042 575.146 183.846C574.493 183.641 573.942 183.361 573.494 183.006L574.278 181.592C574.633 181.881 575.062 182.115 575.566 182.292C576.07 182.469 576.598 182.558 577.148 182.558C577.802 182.558 578.31 182.427 578.674 182.166C579.038 181.895 579.22 181.531 579.22 181.074C579.22 180.626 579.052 180.271 578.716 180.01C578.38 179.749 577.839 179.618 577.092 179.618H576.196V178.372L578.996 175.04L579.234 175.726H573.97V174.2H580.648V175.418L577.848 178.75L576.896 178.19H577.442C578.646 178.19 579.547 178.461 580.144 179.002C580.751 179.534 581.054 180.22 581.054 181.06C581.054 181.611 580.914 182.119 580.634 182.586C580.354 183.053 579.925 183.431 579.346 183.72C578.777 184 578.054 184.14 577.176 184.14ZM591.35 184.14C590.603 184.14 589.908 184.019 589.264 183.776C588.629 183.524 588.074 183.174 587.598 182.726C587.131 182.269 586.767 181.732 586.506 181.116C586.245 180.5 586.114 179.828 586.114 179.1C586.114 178.372 586.245 177.7 586.506 177.084C586.767 176.468 587.136 175.936 587.612 175.488C588.088 175.031 588.643 174.681 589.278 174.438C589.913 174.186 590.608 174.06 591.364 174.06C592.167 174.06 592.899 174.2 593.562 174.48C594.225 174.751 594.785 175.157 595.242 175.698L594.066 176.804C593.711 176.421 593.315 176.137 592.876 175.95C592.437 175.754 591.961 175.656 591.448 175.656C590.935 175.656 590.463 175.74 590.034 175.908C589.614 176.076 589.245 176.314 588.928 176.622C588.62 176.93 588.377 177.294 588.2 177.714C588.032 178.134 587.948 178.596 587.948 179.1C587.948 179.604 588.032 180.066 588.2 180.486C588.377 180.906 588.62 181.27 588.928 181.578C589.245 181.886 589.614 182.124 590.034 182.292C590.463 182.46 590.935 182.544 591.448 182.544C591.961 182.544 592.437 182.451 592.876 182.264C593.315 182.068 593.711 181.774 594.066 181.382L595.242 182.502C594.785 183.034 594.225 183.44 593.562 183.72C592.899 184 592.162 184.14 591.35 184.14ZM599.891 184.098C599.125 184.098 598.444 183.935 597.847 183.608C597.249 183.272 596.778 182.815 596.433 182.236C596.087 181.657 595.915 180.999 595.915 180.262C595.915 179.515 596.087 178.857 596.433 178.288C596.778 177.709 597.249 177.257 597.847 176.93C598.444 176.603 599.125 176.44 599.891 176.44C600.665 176.44 601.351 176.603 601.949 176.93C602.555 177.257 603.027 177.705 603.363 178.274C603.708 178.843 603.881 179.506 603.881 180.262C603.881 180.999 603.708 181.657 603.363 182.236C603.027 182.815 602.555 183.272 601.949 183.608C601.351 183.935 600.665 184.098 599.891 184.098ZM599.891 182.6C600.32 182.6 600.703 182.507 601.039 182.32C601.375 182.133 601.636 181.863 601.823 181.508C602.019 181.153 602.117 180.738 602.117 180.262C602.117 179.777 602.019 179.361 601.823 179.016C601.636 178.661 601.375 178.391 601.039 178.204C600.703 178.017 600.325 177.924 599.905 177.924C599.475 177.924 599.093 178.017 598.757 178.204C598.43 178.391 598.169 178.661 597.973 179.016C597.777 179.361 597.679 179.777 597.679 180.262C597.679 180.738 597.777 181.153 597.973 181.508C598.169 181.863 598.43 182.133 598.757 182.32C599.093 182.507 599.471 182.6 599.891 182.6ZM608.718 184.098C608.084 184.098 607.524 183.981 607.038 183.748C606.553 183.505 606.175 183.141 605.904 182.656C605.634 182.161 605.498 181.541 605.498 180.794V176.524H607.248V180.556C607.248 181.228 607.398 181.732 607.696 182.068C608.004 182.395 608.438 182.558 608.998 182.558C609.409 182.558 609.764 182.474 610.062 182.306C610.37 182.138 610.608 181.886 610.776 181.55C610.954 181.214 611.042 180.799 611.042 180.304V176.524H612.792V184H611.126V181.984L611.42 182.6C611.168 183.085 610.8 183.459 610.314 183.72C609.829 183.972 609.297 184.098 608.718 184.098ZM619.326 176.44C619.923 176.44 620.455 176.557 620.922 176.79C621.398 177.023 621.771 177.383 622.042 177.868C622.312 178.344 622.448 178.96 622.448 179.716V184H620.698V179.94C620.698 179.277 620.539 178.783 620.222 178.456C619.914 178.129 619.48 177.966 618.92 177.966C618.509 177.966 618.145 178.05 617.828 178.218C617.51 178.386 617.263 178.638 617.086 178.974C616.918 179.301 616.834 179.716 616.834 180.22V184H615.084V176.524H616.75V178.54L616.456 177.924C616.717 177.448 617.095 177.084 617.59 176.832C618.094 176.571 618.672 176.44 619.326 176.44ZM627.482 184.098C626.66 184.098 626.026 183.888 625.578 183.468C625.13 183.039 624.906 182.409 624.906 181.578V174.872H626.656V181.536C626.656 181.891 626.744 182.166 626.922 182.362C627.108 182.558 627.365 182.656 627.692 182.656C628.084 182.656 628.41 182.553 628.672 182.348L629.162 183.594C628.956 183.762 628.704 183.888 628.406 183.972C628.107 184.056 627.799 184.098 627.482 184.098ZM623.674 177.98V176.58H628.658V177.98H623.674Z" fill="#F7FAFC"/>
</g>
<defs>
<clipPath id="clip0_1_400">
<rect width="764.098" height="266.079" fill="white" transform="translate(0.237305 0.763)"/>
</clipPath>
</defs>
</svg>
